<svg width="46" height="46" viewBox="0 0 46 46" fill="none" xmlns="http://www.w3.org/2000/svg">
<rect x="0.5" y="0.5" width="45" height="45" rx="22.5" fill="#F5F5F5"/>
<path fill-rule="evenodd" clip-rule="evenodd" d="M36.574 23.3249C36.574 22.3109 36.483 21.3359 36.314 20.3999H22.846V25.9314H30.542C30.2105 27.7189 29.203 29.2334 27.6885 30.2474V33.8354H32.31C35.014 31.3459 36.574 27.6799 36.574 23.3249Z" fill="#4285F4"/>
<path fill-rule="evenodd" clip-rule="evenodd" d="M22.846 37.3C26.707 37.3 29.944 36.0195 32.31 33.8355L27.6885 30.2475C26.408 31.1055 24.77 31.6125 22.846 31.6125C19.1215 31.6125 15.969 29.097 14.8445 25.717H10.067V29.422C12.42 34.0955 17.256 37.3 22.846 37.3Z" fill="#34A853"/>
<path fill-rule="evenodd" clip-rule="evenodd" d="M14.8445 25.7169C14.5585 24.8589 14.396 23.9424 14.396 22.9999C14.396 22.0574 14.5585 21.1409 14.8445 20.2829V16.5779H10.067C9.09849 18.5084 8.54599 20.6924 8.54599 22.9999C8.54599 25.3074 9.09849 27.4914 10.067 29.4219L14.8445 25.7169Z" fill="#FBBC05"/>
<path fill-rule="evenodd" clip-rule="evenodd" d="M22.846 14.3874C24.9455 14.3874 26.8305 15.1089 28.3125 16.5259L32.414 12.4245C29.9375 10.117 26.7005 8.69995 22.846 8.69995C17.256 8.69995 12.42 11.9045 10.067 16.5779L14.8445 20.2829C15.969 16.9029 19.1215 14.3874 22.846 14.3874Z" fill="#EA4335"/>
<rect x="0.5" y="0.5" width="45" height="45" rx="22.5" stroke="#EAEAEA"/>
</svg>
