<svg width="44" height="44" viewBox="0 0 44 44" fill="none" xmlns="http://www.w3.org/2000/svg">
<rect width="44" height="44" rx="22" fill="url(#paint0_linear_411_55106)"/>
<path fill-rule="evenodd" clip-rule="evenodd" d="M9.9588 21.7679C16.3722 18.9737 20.6489 17.1315 22.7887 16.2415C28.8983 13.7003 30.1679 13.2589 30.9953 13.2443C31.1773 13.2411 31.5843 13.2862 31.8478 13.5001C32.0704 13.6807 32.1316 13.9246 32.1609 14.0959C32.1903 14.2671 32.2267 14.6571 32.1977 14.9619C31.8667 18.4406 30.4341 26.8826 29.7052 30.7788C29.3968 32.4274 28.7896 32.9802 28.2017 33.0343C26.9242 33.1519 25.954 32.19 24.7166 31.3789C22.7803 30.1096 21.6865 29.3195 19.807 28.0809C17.6349 26.6496 19.0429 25.8628 20.2808 24.5771C20.6048 24.2407 26.2338 19.1206 26.3428 18.6562C26.3564 18.5981 26.369 18.3815 26.2404 18.2672C26.1118 18.1529 25.9219 18.192 25.7849 18.2231C25.5907 18.2671 22.4975 20.3116 16.5052 24.3566C15.6272 24.9595 14.8319 25.2533 14.1194 25.2379C13.3338 25.2209 11.8228 24.7937 10.6995 24.4286C9.32179 23.9807 8.22678 23.744 8.32213 22.9834C8.3718 22.5872 8.91735 22.182 9.9588 21.7679Z" fill="white"/>
<defs>
<linearGradient id="paint0_linear_411_55106" x1="22" y1="0" x2="22" y2="43.6737" gradientUnits="userSpaceOnUse">
<stop stop-color="#2AABEE"/>
<stop offset="1" stop-color="#229ED9"/>
</linearGradient>
</defs>
</svg>
