<svg width="44" height="44" viewBox="0 0 44 44" fill="none" xmlns="http://www.w3.org/2000/svg">
<path fill-rule="evenodd" clip-rule="evenodd" d="M15.2533 0H28.7467C41.0667 0 44 2.93333 44 15.2533V28.7467C44 41.0667 41.0667 44 28.7467 44H15.2533C2.93333 44 0 41.0667 0 28.7467V15.2533C0 2.93333 2.93333 0 15.2533 0Z" fill="#2787F5"/>
<path fill-rule="evenodd" clip-rule="evenodd" d="M36.0328 15.1586C36.2367 14.4788 36.0328 13.9792 35.0626 13.9792H31.8542C31.0385 13.9792 30.6624 14.4108 30.4584 14.8866C30.4584 14.8866 28.8269 18.8635 26.5155 21.4467C25.7678 22.1945 25.4279 22.4324 25.02 22.4324C24.816 22.4324 24.5208 22.1945 24.5208 21.5147V15.1586C24.5208 14.3428 24.2841 13.9792 23.6042 13.9792H18.5626C18.0528 13.9792 17.7462 14.3579 17.7462 14.7167C17.7462 15.49 18.9018 15.6684 19.0209 17.8438V22.5684C19.0209 23.6042 18.8338 23.7921 18.4259 23.7921C17.3383 23.7921 14.6926 19.7974 13.1235 15.2265C12.8159 14.3381 12.5075 13.9792 11.6876 13.9792H8.47922C7.56255 13.9792 7.37921 14.4108 7.37921 14.8866C7.37921 15.7364 8.46691 19.9512 12.4437 25.5255C15.0949 29.3323 18.8302 31.3959 22.2292 31.3959C24.2686 31.3959 24.5209 30.9376 24.5209 30.1481V27.2709C24.5209 26.3542 24.7141 26.1713 25.3599 26.1713C25.8357 26.1713 26.6515 26.4092 28.555 28.2447C30.7303 30.42 31.089 31.3959 32.3126 31.3959H35.5209C36.4376 31.3959 36.8959 30.9376 36.6315 30.0331C36.3422 29.1316 35.3035 27.8237 33.9254 26.2733C33.1776 25.3895 32.0559 24.4379 31.716 23.9619C31.2402 23.3502 31.3761 23.0782 31.716 22.5344C31.716 22.5344 35.6249 17.028 36.0328 15.1586Z" fill="white"/>
</svg>
