<svg width="15" height="32" viewBox="0 0 15 32" fill="none" xmlns="http://www.w3.org/2000/svg">
<path d="M3.00717 3.90593C6.97484 5.93888 10.059 10.1993 10.4566 15.1992C10.8521 20.1735 8.59091 25.963 1.70263 31.059L2.29737 31.8629C9.40768 26.6027 11.8813 20.5018 11.4534 15.1199C11.0275 9.76369 7.72996 5.20217 3.46317 3.01595L3.00717 3.90593Z" fill="#787675"/>
<path d="M4.70408 4.2681C3.92812 5.2331 2.49675 4.76314 1.25605 3.76556C0.0153596 2.76798 0.0249687 0.505829 0.0249687 0.505829C0.0249687 0.505829 2.3701 0.121586 3.47299 1.00837C4.57588 1.89515 5.48004 3.30311 4.70408 4.2681Z" fill="#787675"/>
<path d="M8.0998 7.45172C6.88442 7.21468 6.63341 5.72919 6.93811 4.16662C7.2428 2.60404 9.24894 1.55865 9.24894 1.55865C9.24894 1.55865 10.6815 3.45473 10.4106 4.84375C10.1398 6.23278 9.31518 7.68875 8.0998 7.45172Z" fill="#787675"/>
<path d="M10.4744 12.5916C9.36576 12.04 9.51867 10.5413 10.2278 9.1159C10.9369 7.69054 13.1487 7.21605 13.1487 7.21605C13.1487 7.21605 14.0257 9.42472 13.3954 10.6918C12.765 11.9588 11.583 13.1432 10.4744 12.5916Z" fill="#787675"/>
<path d="M10.4151 18.8757C9.53414 18.0055 10.1474 16.6295 11.2661 15.4968C12.3848 14.3641 14.6342 14.604 14.6342 14.604C14.6342 14.604 14.7777 16.9761 13.7833 17.9829C12.7888 18.9898 11.2961 19.7459 10.4151 18.8757Z" fill="#787675"/>
<path d="M9.00588 22.7497C8.88303 21.5175 10.2334 20.8496 11.8175 20.6916C13.4017 20.5336 14.9803 22.1539 14.9803 22.1539C14.9803 22.1539 13.5768 24.0716 12.1686 24.212C10.7604 24.3525 9.12873 23.9819 9.00588 22.7497Z" fill="#787675"/>
<path d="M5.93758 27.8778C5.93245 26.6396 7.34021 26.103 8.93221 26.0964C10.5242 26.0897 11.9416 27.8528 11.9416 27.8528C11.9416 27.8528 10.3621 29.6284 8.94697 29.6343C7.53179 29.6402 5.94271 29.1161 5.93758 27.8778Z" fill="#787675"/>
<path d="M5.74097 27.4779C6.81333 26.8587 6.56792 25.3723 5.77192 23.9935C4.97592 22.6148 2.73894 22.2782 2.73894 22.2782C2.73894 22.2782 2.00039 24.5369 2.70799 25.7625C3.41558 26.9881 4.66861 28.097 5.74097 27.4779Z" fill="#787675"/>
<path d="M8.87103 23.1535C9.84285 22.3861 9.38555 20.9506 8.39897 19.7011C7.41239 18.4517 5.15024 18.4413 5.15024 18.4413C5.15024 18.4413 4.7453 20.783 5.6223 21.8936C6.49931 23.0043 7.89922 23.9209 8.87103 23.1535Z" fill="#787675"/>
<path d="M10.3912 18.8682C11.2706 17.9964 10.6548 16.6214 9.53401 15.4908C8.41322 14.3602 6.16424 14.6042 6.16424 14.6042C6.16424 14.6042 6.02512 16.9765 7.02143 17.9816C8.01775 18.9866 9.51183 19.74 10.3912 18.8682Z" fill="#787675"/>
<path d="M10.5379 12.1707C10.7499 10.9507 9.45165 10.1863 7.88317 9.91365C6.31469 9.64097 4.62252 11.1423 4.62252 11.1423C4.62252 11.1423 5.88293 13.1569 7.27721 13.3993C8.67148 13.6417 10.3258 13.3906 10.5379 12.1707Z" fill="#787675"/>
<path d="M7.45905 7.62195C7.36802 6.38702 5.92285 5.96139 4.33514 6.07837C2.74744 6.19534 1.47122 8.06314 1.47122 8.06314C1.47122 8.06314 3.18376 9.71072 4.59512 9.60673C6.00648 9.50274 7.55008 8.85688 7.45905 7.62195Z" fill="#787675"/>
</svg>
