<svg width="15" height="32" viewBox="0 0 15 32" fill="none" xmlns="http://www.w3.org/2000/svg">
<path d="M11.9928 3.90593C8.02516 5.93888 4.941 10.1993 4.54345 15.1992C4.14793 20.1735 6.40909 25.963 13.2974 31.059L12.7026 31.8629C5.59232 26.6027 3.11867 20.5018 3.54659 15.1199C3.97248 9.76369 7.27004 5.20217 11.5368 3.01595L11.9928 3.90593Z" fill="#787675"/>
<path d="M10.2959 4.2681C11.0719 5.2331 12.5033 4.76314 13.7439 3.76556C14.9846 2.76798 14.975 0.505829 14.975 0.505829C14.975 0.505829 12.6299 0.121586 11.527 1.00837C10.4241 1.89515 9.51996 3.30311 10.2959 4.2681Z" fill="#787675"/>
<path d="M6.9002 7.45172C8.11558 7.21468 8.36659 5.72919 8.06189 4.16662C7.7572 2.60404 5.75106 1.55865 5.75106 1.55865C5.75106 1.55865 4.31852 3.45473 4.58937 4.84375C4.86023 6.23278 5.68482 7.68875 6.9002 7.45172Z" fill="#787675"/>
<path d="M4.5256 12.5916C5.63424 12.04 5.48133 10.5413 4.77222 9.1159C4.06312 7.69054 1.85126 7.21605 1.85126 7.21605C1.85126 7.21605 0.974291 9.42472 1.60464 10.6918C2.235 11.9588 3.41696 13.1432 4.5256 12.5916Z" fill="#787675"/>
<path d="M4.58491 18.8757C5.46589 18.0055 4.85264 16.6295 3.73393 15.4968C2.61521 14.3641 0.365794 14.604 0.365794 14.604C0.365794 14.604 0.222313 16.9761 1.21678 17.9829C2.21124 18.9898 3.70393 19.7459 4.58491 18.8757Z" fill="#787675"/>
<path d="M5.99412 22.7497C6.11697 21.5175 4.76661 20.8496 3.18246 20.6916C1.59831 20.5336 0.0196997 22.1539 0.0196997 22.1539C0.0196997 22.1539 1.42316 24.0716 2.83136 24.212C4.23956 24.3525 5.87127 23.9819 5.99412 22.7497Z" fill="#787675"/>
<path d="M9.06242 27.8778C9.06755 26.6396 7.65979 26.103 6.06779 26.0964C4.4758 26.0897 3.05841 27.8528 3.05841 27.8528C3.05841 27.8528 4.63786 29.6284 6.05303 29.6343C7.46821 29.6402 9.05729 29.1161 9.06242 27.8778Z" fill="#787675"/>
<path d="M9.25903 27.4779C8.18667 26.8587 8.43208 25.3723 9.22808 23.9935C10.0241 22.6148 12.2611 22.2782 12.2611 22.2782C12.2611 22.2782 12.9996 24.5369 12.292 25.7625C11.5844 26.9881 10.3314 28.097 9.25903 27.4779Z" fill="#787675"/>
<path d="M6.12897 23.1535C5.15715 22.3861 5.61445 20.9506 6.60103 19.7011C7.58761 18.4517 9.84976 18.4413 9.84976 18.4413C9.84976 18.4413 10.2547 20.783 9.3777 21.8936C8.50069 23.0043 7.10078 23.9209 6.12897 23.1535Z" fill="#787675"/>
<path d="M4.6088 18.8682C3.72942 17.9964 4.34519 16.6214 5.46599 15.4908C6.58678 14.3602 8.83576 14.6042 8.83576 14.6042C8.83576 14.6042 8.97488 16.9765 7.97857 17.9816C6.98225 18.9866 5.48817 19.74 4.6088 18.8682Z" fill="#787675"/>
<path d="M4.46214 12.1707C4.25009 10.9507 5.54835 10.1863 7.11683 9.91365C8.68531 9.64097 10.3775 11.1423 10.3775 11.1423C10.3775 11.1423 9.11707 13.1569 7.72279 13.3993C6.32852 13.6417 4.67419 13.3906 4.46214 12.1707Z" fill="#787675"/>
<path d="M7.54095 7.62195C7.63198 6.38702 9.07715 5.96139 10.6649 6.07837C12.2526 6.19534 13.5288 8.06314 13.5288 8.06314C13.5288 8.06314 11.8162 9.71072 10.4049 9.60673C8.99352 9.50274 7.44992 8.85688 7.54095 7.62195Z" fill="#787675"/>
</svg>
