<svg width="24" height="24" viewBox="0 0 24 24" fill="none" xmlns="http://www.w3.org/2000/svg">
<path fill-rule="evenodd" clip-rule="evenodd" d="M17.6569 6.34313C18.0474 6.73365 18.0474 7.36681 17.6569 7.75734L7.75736 17.6568C7.36683 18.0474 6.73367 18.0474 6.34314 17.6568C5.95262 17.2663 5.95262 16.6331 6.34314 16.2426L16.2426 6.34312C16.6332 5.9526 17.2663 5.9526 17.6569 6.34313Z" fill="black"/>
<path fill-rule="evenodd" clip-rule="evenodd" d="M17.6569 17.6568C17.2663 18.0474 16.6332 18.0474 16.2426 17.6568L6.34314 7.75735C5.95262 7.36683 5.95262 6.73366 6.34314 6.34314C6.73367 5.95261 7.36683 5.95261 7.75736 6.34314L17.6569 16.2426C18.0474 16.6332 18.0474 17.2663 17.6569 17.6568Z" fill="black"/>
</svg>
