<svg width="24" height="24" viewBox="0 0 24 24" fill="none" xmlns="http://www.w3.org/2000/svg">
<path fill-rule="evenodd" clip-rule="evenodd" d="M3 10C3 8.34315 4.34315 7 6 7H12C13.6569 7 15 8.34315 15 10V19C15 20.6569 13.6569 22 12 22H6C4.34315 22 3 20.6569 3 19V10ZM6 9C5.44772 9 5 9.44772 5 10V19C5 19.5523 5.44772 20 6 20H12C12.5523 20 13 19.5523 13 19V10C13 9.44772 12.5523 9 12 9H6Z" fill="#111111"/>
<path fill-rule="evenodd" clip-rule="evenodd" d="M11.1429 2.85715C9.486 2.85715 8.14285 4.20029 8.14285 5.85715V6.42858H10.1429V5.85715C10.1429 5.30486 10.5906 4.85715 11.1429 4.85715H17.4286C17.9809 4.85715 18.4286 5.30486 18.4286 5.85715V14.7143C18.4286 15.2666 17.9809 15.7143 17.4286 15.7143H16V17.7143H17.4286C19.0854 17.7143 20.4286 16.3711 20.4286 14.7143V5.85715C20.4286 4.20029 19.0854 2.85715 17.4286 2.85715H11.1429Z" fill="#111111"/>
</svg>
