<svg width="24" height="25" viewBox="0 0 24 25" fill="none" xmlns="http://www.w3.org/2000/svg">
<path fill-rule="evenodd" clip-rule="evenodd" d="M11 8.5C11.5523 8.5 12 8.94772 12 9.5L12 15.0858L13.7929 13.2929C14.1834 12.9024 14.8166 12.9024 15.2071 13.2929C15.5976 13.6834 15.5976 14.3166 15.2071 14.7071L11 18.9142L6.79289 14.7071C6.40237 14.3166 6.40237 13.6834 6.79289 13.2929C7.18342 12.9024 7.81658 12.9024 8.20711 13.2929L10 15.0858L10 9.5C10 8.94772 10.4477 8.5 11 8.5Z" fill="#111111"/>
<path fill-rule="evenodd" clip-rule="evenodd" d="M6 3.5C5.44772 3.5 5 3.94772 5 4.5V19.5C5 20.0523 5.44772 20.5 6 20.5H19C19.5523 20.5 20 20.0523 20 19.5V9.32843C20 9.06321 19.8946 8.80886 19.7071 8.62132L14.8787 3.79289C14.6911 3.60536 14.4368 3.5 14.1716 3.5H6ZM3 4.5C3 2.84315 4.34315 1.5 6 1.5H14.1716C14.9672 1.5 15.7303 1.81607 16.2929 2.37868L21.1213 7.20711C21.6839 7.76972 22 8.53278 22 9.32843V19.5C22 21.1569 20.6569 22.5 19 22.5H6C4.34315 22.5 3 21.1569 3 19.5V4.5Z" fill="#111111"/>
<path fill-rule="evenodd" clip-rule="evenodd" d="M15 1.5C15.5523 1.5 16 1.94772 16 2.5V6.5C16 7.05228 16.4477 7.5 17 7.5H21C21.5523 7.5 22 7.94772 22 8.5C22 9.05228 21.5523 9.5 21 9.5H17C15.3431 9.5 14 8.15685 14 6.5V2.5C14 1.94772 14.4477 1.5 15 1.5Z" fill="#111111"/>
</svg>
