<svg width="24" height="24" viewBox="0 0 24 24" fill="none" xmlns="http://www.w3.org/2000/svg">
<path fill-rule="evenodd" clip-rule="evenodd" d="M16.4142 4C15.6332 3.21895 14.3668 3.21895 13.5858 4L3.58579 14C3.21071 14.3751 3 14.8838 3 15.4142V19C3 20.1046 3.89543 21 5 21H8.58579C9.11622 21 9.62493 20.7893 10 20.4142L20 10.4142C20.781 9.63317 20.781 8.36684 20 7.58579L16.4142 4ZM15 5.41422L18.5858 9L10.5 17.0858L6.91421 13.5L15 5.41422ZM5.5 14.9142L5 15.4142V19H8.58579L9.08579 18.5L5.5 14.9142Z" fill="currentColor"/>
</svg>
