<svg width="24" height="24" viewBox="0 0 24 24" fill="none" xmlns="http://www.w3.org/2000/svg">
<path fill-rule="evenodd" clip-rule="evenodd" d="M2 15C2 13.8954 2.89543 13 4 13H20C21.1046 13 22 13.8954 22 15V18C22 19.1046 21.1046 20 20 20H4C2.89543 20 2 19.1046 2 18V15ZM20 15H4V18H20V15Z" fill="white"/>
<path fill-rule="evenodd" clip-rule="evenodd" d="M2 6C2 4.89543 2.89543 4 4 4H20C21.1046 4 22 4.89543 22 6V9C22 10.1046 21.1046 11 20 11H4C2.89543 11 2 10.1046 2 9V6ZM20 6H4V9H20V6Z" fill="white"/>
</svg>
