<svg width="106" height="36" viewBox="0 0 106 36" fill="none" xmlns="http://www.w3.org/2000/svg">
<path fill-rule="evenodd" clip-rule="evenodd" d="M17.6667 35.3333C27.4237 35.3333 35.3333 27.4237 35.3333 17.6667C35.3333 7.90964 27.4237 0 17.6667 0C7.90964 0 0 7.90964 0 17.6667C0 27.4237 7.90964 35.3333 17.6667 35.3333ZM17.6667 21.7436C19.9183 21.7436 21.7436 19.9183 21.7436 17.6667C21.7436 15.415 19.9183 13.5897 17.6667 13.5897C15.415 13.5897 13.5897 15.415 13.5897 17.6667C13.5897 19.9183 15.415 21.7436 17.6667 21.7436Z" fill="#FA4C25"/>
<path d="M39.9304 7.09788V4.57104H49.6594V7.09788H46.3421V14.9487H43.2072V7.09788H39.9304Z" fill="black"/>
<path d="M55.762 15.1446C54.672 15.1446 53.7352 14.9216 52.9514 14.4757C52.1722 14.0253 51.5709 13.3992 51.1475 12.5975C50.7286 11.7912 50.5192 10.8566 50.5192 9.79363C50.5192 8.72614 50.7286 7.79152 51.1475 6.98978C51.5709 6.18353 52.1722 5.55745 52.9514 5.11154C53.7352 4.66112 54.672 4.43591 55.762 4.43591C56.852 4.43591 57.7867 4.66112 58.5659 5.11154C59.3496 5.55745 59.9509 6.18353 60.3698 6.98978C60.7932 7.79152 61.0049 8.72614 61.0049 9.79363C61.0049 10.8566 60.7932 11.7912 60.3698 12.5975C59.9509 13.3992 59.3496 14.0253 58.5659 14.4757C57.7867 14.9216 56.852 15.1446 55.762 15.1446ZM55.7823 12.6515C56.1787 12.6515 56.5142 12.5299 56.789 12.2867C57.0637 12.0435 57.2732 11.7057 57.4173 11.2733C57.566 10.8409 57.6403 10.3409 57.6403 9.77336C57.6403 9.19683 57.566 8.69236 57.4173 8.25996C57.2732 7.82756 57.0637 7.48974 56.789 7.24652C56.5142 7.00329 56.1787 6.88168 55.7823 6.88168C55.3724 6.88168 55.0256 7.00329 54.7418 7.24652C54.4626 7.48974 54.2486 7.82756 54.1 8.25996C53.9559 8.69236 53.8838 9.19683 53.8838 9.77336C53.8838 10.3409 53.9559 10.8409 54.1 11.2733C54.2486 11.7057 54.4626 12.0435 54.7418 12.2867C55.0256 12.5299 55.3724 12.6515 55.7823 12.6515Z" fill="black"/>
<path d="M72.0413 4.57104V14.9487H68.9334V4.57104H72.0413ZM70.467 8.99639V11.5232C70.2914 11.6133 70.0437 11.7011 69.7239 11.7867C69.4086 11.8678 69.0753 11.9354 68.7239 11.9894C68.3771 12.0435 68.0686 12.0705 67.7983 12.0705C66.2038 12.0705 64.9539 11.7665 64.0486 11.1584C63.1478 10.5458 62.6973 9.55041 62.6973 8.17213V4.56428H65.785V8.17213C65.785 8.52796 65.8413 8.80496 65.9539 9.00315C66.071 9.20133 66.2737 9.34096 66.5619 9.42204C66.8547 9.50311 67.2668 9.54365 67.7983 9.54365C68.2037 9.54365 68.6181 9.49861 69.0415 9.40852C69.4694 9.31394 69.9446 9.17656 70.467 8.99639Z" fill="black"/>
<path d="M74.0496 14.9487V4.57104H77.3534V8.43562H78.083L80.6031 4.57104H84.4272L80.9342 9.76661L84.461 14.9487H80.5896L78.3128 11.503H77.3534V14.9487H74.0496Z" fill="black"/>
<path d="M88.4201 15.1243C87.758 15.1243 87.1702 15.014 86.6567 14.7933C86.1478 14.5681 85.7446 14.2302 85.4474 13.7798C85.1546 13.3249 85.0082 12.7551 85.0082 12.0705C85.0082 11.494 85.1096 11.0075 85.3122 10.6111C85.5149 10.2148 85.7942 9.89272 86.15 9.64499C86.5059 9.39726 86.9157 9.21034 87.3797 9.08422C87.8436 8.9536 88.339 8.86577 88.866 8.82073C89.4561 8.76668 89.9313 8.71038 90.2916 8.65182C90.6519 8.58876 90.9132 8.50093 91.0753 8.38833C91.242 8.27122 91.3253 8.10682 91.3253 7.89512V7.86134C91.3253 7.51452 91.206 7.24652 90.9672 7.05734C90.7285 6.86817 90.4065 6.77358 90.0011 6.77358C89.5642 6.77358 89.2129 6.86817 88.9471 7.05734C88.6814 7.24652 88.5125 7.50776 88.4404 7.84107L85.3933 7.73297C85.4834 7.10239 85.7154 6.53936 86.0892 6.0439C86.4676 5.54394 86.9855 5.15208 87.6432 4.86831C88.3053 4.58005 89.1003 4.43591 90.0281 4.43591C90.6902 4.43591 91.3005 4.51474 91.8591 4.67238C92.4176 4.82552 92.904 5.05073 93.3184 5.34801C93.7328 5.64078 94.0526 6.00111 94.2778 6.42901C94.5075 6.85691 94.6224 7.34561 94.6224 7.89512V14.9487H91.5145V13.5028H91.4334C91.2487 13.8541 91.0123 14.1514 90.724 14.3946C90.4402 14.6379 90.1047 14.8203 89.7173 14.9419C89.3345 15.0635 88.9021 15.1243 88.4201 15.1243ZM89.4403 12.9623C89.7962 12.9623 90.1159 12.8903 90.3997 12.7461C90.688 12.602 90.9177 12.4038 91.0888 12.1516C91.26 11.8948 91.3456 11.5976 91.3456 11.2597V10.2733C91.251 10.3229 91.1361 10.3679 91.001 10.4085C90.8704 10.449 90.7263 10.4873 90.5686 10.5233C90.411 10.5593 90.2488 10.5909 90.0822 10.6179C89.9155 10.6449 89.7556 10.6697 89.6025 10.6922C89.2917 10.7418 89.0259 10.8183 88.8052 10.9219C88.589 11.0255 88.4224 11.1606 88.3053 11.3273C88.1927 11.4895 88.1364 11.6831 88.1364 11.9083C88.1364 12.2507 88.258 12.5119 88.5012 12.6921C88.7489 12.8722 89.062 12.9623 89.4403 12.9623Z" fill="black"/>
<path d="M45.3016 31.4523C44.2071 31.4523 43.268 31.2271 42.4843 30.7767C41.7051 30.3262 41.106 29.7002 40.6871 28.8984C40.2682 28.0922 40.0588 27.1598 40.0588 26.1013C40.0588 25.0383 40.2682 24.106 40.6871 23.3042C41.1105 22.498 41.7118 21.8696 42.491 21.4192C43.2748 20.9688 44.2094 20.7436 45.2949 20.7436C46.2543 20.7436 47.0898 20.917 47.8015 21.2638C48.5176 21.6107 49.0761 22.1016 49.477 22.7367C49.8824 23.3673 50.0963 24.1082 50.1189 24.9595H47.0313C46.9682 24.428 46.788 24.0114 46.4908 23.7096C46.198 23.4078 45.8151 23.2569 45.3422 23.2569C44.9593 23.2569 44.6238 23.365 44.3355 23.5812C44.0472 23.7929 43.822 24.1082 43.6599 24.5271C43.5022 24.9415 43.4234 25.455 43.4234 26.0675C43.4234 26.6801 43.5022 27.1981 43.6599 27.6215C43.822 28.0404 44.0472 28.3579 44.3355 28.5741C44.6238 28.7858 44.9593 28.8917 45.3422 28.8917C45.6485 28.8917 45.9187 28.8263 46.1529 28.6957C46.3917 28.5651 46.5876 28.3737 46.7407 28.1214C46.8939 27.8647 46.9907 27.5539 47.0313 27.1891H50.1189C50.0873 28.0449 49.8734 28.7926 49.477 29.4322C49.0852 30.0718 48.5334 30.5695 47.8217 30.9253C47.1146 31.2766 46.2746 31.4523 45.3016 31.4523Z" fill="black"/>
<path d="M51.1526 23.4056V20.8787H60.8816V23.4056H57.5643V31.2564H54.4294V23.4056H51.1526Z" fill="black"/>
<path d="M65.0654 31.432C64.4033 31.432 63.8155 31.3217 63.302 31.101C62.7931 30.8757 62.3899 30.5379 62.0927 30.0875C61.7999 29.6326 61.6535 29.0628 61.6535 28.3782C61.6535 27.8017 61.7548 27.3152 61.9575 26.9188C62.1602 26.5225 62.4395 26.2004 62.7953 25.9527C63.1511 25.705 63.561 25.518 64.0249 25.3919C64.4889 25.2613 64.9843 25.1735 65.5113 25.1284C66.1014 25.0744 66.5766 25.0181 66.9369 24.9595C67.2972 24.8965 67.5585 24.8086 67.7206 24.696C67.8873 24.5789 67.9706 24.4145 67.9706 24.2028V24.169C67.9706 23.8222 67.8512 23.5542 67.6125 23.365C67.3738 23.1759 67.0518 23.0813 66.6464 23.0813C66.2095 23.0813 65.8581 23.1759 65.5924 23.365C65.3267 23.5542 65.1577 23.8155 65.0857 24.1488L62.0386 24.0407C62.1287 23.4101 62.3607 22.8471 62.7345 22.3516C63.1129 21.8516 63.6308 21.4598 64.2884 21.176C64.9506 20.8877 65.7455 20.7436 66.6734 20.7436C67.3355 20.7436 67.9458 20.8224 68.5043 20.9801C69.0629 21.1332 69.5493 21.3584 69.9637 21.6557C70.3781 21.9485 70.6979 22.3088 70.9231 22.7367C71.1528 23.1646 71.2677 23.6533 71.2677 24.2028V31.2564H68.1598V29.8105H68.0787C67.894 30.1618 67.6576 30.4591 67.3693 30.7023C67.0855 30.9456 66.75 31.128 66.3626 31.2496C65.9798 31.3712 65.5474 31.432 65.0654 31.432ZM66.0856 29.27C66.4414 29.27 66.7612 29.1979 67.045 29.0538C67.3333 28.9097 67.563 28.7115 67.7341 28.4593C67.9053 28.2025 67.9909 27.9052 67.9909 27.5674V26.581C67.8963 26.6306 67.7814 26.6756 67.6463 26.7161C67.5157 26.7567 67.3715 26.795 67.2139 26.831C67.0563 26.867 66.8941 26.8986 66.7275 26.9256C66.5608 26.9526 66.4009 26.9774 66.2478 26.9999C65.937 27.0495 65.6712 27.126 65.4505 27.2296C65.2343 27.3332 65.0677 27.4683 64.9506 27.635C64.8379 27.7971 64.7816 27.9908 64.7816 28.216C64.7816 28.5584 64.9033 28.8196 65.1465 28.9998C65.3942 29.1799 65.7073 29.27 66.0856 29.27Z" fill="black"/>
<path d="M73.2878 35.148V20.8787H76.5578V22.6556H76.6592C76.7943 22.3403 76.9857 22.0363 77.2334 21.7435C77.4857 21.4508 77.8055 21.212 78.1928 21.0274C78.5847 20.8382 79.0531 20.7436 79.5981 20.7436C80.3188 20.7436 80.9922 20.9328 81.6183 21.3111C82.2488 21.6895 82.7578 22.2728 83.1452 23.061C83.5325 23.8492 83.7262 24.8537 83.7262 26.0743C83.7262 27.2499 83.5393 28.2341 83.1654 29.0268C82.7961 29.8195 82.2961 30.4141 81.6656 30.8104C81.0395 31.2068 80.3436 31.405 79.5779 31.405C79.0554 31.405 78.6027 31.3194 78.2199 31.1483C77.837 30.9771 77.515 30.7519 77.2537 30.4726C76.997 30.1934 76.7988 29.8938 76.6592 29.574H76.5916V35.148H73.2878ZM76.524 26.0675C76.524 26.6261 76.5984 27.1125 76.747 27.5269C76.9001 27.9413 77.1186 28.2633 77.4023 28.493C77.6906 28.7183 78.0352 28.8309 78.4361 28.8309C78.8414 28.8309 79.186 28.7183 79.4698 28.493C79.7535 28.2633 79.9675 27.9413 80.1116 27.5269C80.2602 27.1125 80.3346 26.6261 80.3346 26.0675C80.3346 25.509 80.2602 25.0248 80.1116 24.6149C79.9675 24.2051 79.7535 23.8875 79.4698 23.6623C79.1905 23.4371 78.8459 23.3245 78.4361 23.3245C78.0307 23.3245 77.6861 23.4348 77.4023 23.6556C77.1186 23.8763 76.9001 24.1916 76.747 24.6014C76.5984 25.0113 76.524 25.5 76.524 26.0675Z" fill="black"/>
<path d="M84.5589 23.4056V20.8787H94.2879V23.4056H90.9706V31.2564H87.8357V23.4056H84.5589Z" fill="black"/>
<path d="M98.4718 31.432C97.8096 31.432 97.2218 31.3217 96.7084 31.101C96.1994 30.8757 95.7963 30.5379 95.499 30.0875C95.2062 29.6326 95.0598 29.0628 95.0598 28.3782C95.0598 27.8017 95.1612 27.3152 95.3639 26.9188C95.5666 26.5225 95.8458 26.2004 96.2017 25.9527C96.5575 25.705 96.9674 25.518 97.4313 25.3919C97.8952 25.2613 98.3907 25.1735 98.9177 25.1284C99.5077 25.0744 99.9829 25.0181 100.343 24.9595C100.704 24.8965 100.965 24.8086 101.127 24.696C101.294 24.5789 101.377 24.4145 101.377 24.2028V24.169C101.377 23.8222 101.258 23.5542 101.019 23.365C100.78 23.1759 100.458 23.0813 100.053 23.0813C99.6158 23.0813 99.2645 23.1759 98.9987 23.365C98.733 23.5542 98.5641 23.8155 98.492 24.1488L95.445 24.0407C95.535 23.4101 95.767 22.8471 96.1408 22.3516C96.5192 21.8516 97.0372 21.4598 97.6948 21.176C98.3569 20.8877 99.1519 20.7436 100.08 20.7436C100.742 20.7436 101.352 20.8224 101.911 20.9801C102.469 21.1332 102.956 21.3584 103.37 21.6557C103.784 21.9485 104.104 22.3088 104.329 22.7367C104.559 23.1646 104.674 23.6533 104.674 24.2028V31.2564H101.566V29.8105H101.485C101.3 30.1618 101.064 30.4591 100.776 30.7023C100.492 30.9456 100.156 31.128 99.769 31.2496C99.3861 31.3712 98.9537 31.432 98.4718 31.432ZM99.492 29.27C99.8478 29.27 100.168 29.1979 100.451 29.0538C100.74 28.9097 100.969 28.7115 101.14 28.4593C101.312 28.2025 101.397 27.9052 101.397 27.5674V26.581C101.303 26.6306 101.188 26.6756 101.053 26.7161C100.922 26.7567 100.778 26.795 100.62 26.831C100.463 26.867 100.3 26.8986 100.134 26.9256C99.9671 26.9526 99.8072 26.9774 99.6541 26.9999C99.3433 27.0495 99.0776 27.126 98.8569 27.2296C98.6407 27.3332 98.474 27.4683 98.3569 27.635C98.2443 27.7971 98.188 27.9908 98.188 28.216C98.188 28.5584 98.3096 28.8196 98.5528 28.9998C98.8006 29.1799 99.1136 29.27 99.492 29.27Z" fill="black"/>
</svg>
