<svg width="144" height="48" viewBox="0 0 144 48" fill="none" xmlns="http://www.w3.org/2000/svg">
<path fill-rule="evenodd" clip-rule="evenodd" d="M24 48C37.2548 48 48 37.2548 48 24C48 10.7452 37.2548 0 24 0C10.7452 0 0 10.7452 0 24C0 37.2548 10.7452 48 24 48ZM24 29.5385C27.0588 29.5385 29.5385 27.0588 29.5385 24C29.5385 20.9412 27.0588 18.4615 24 18.4615C20.9412 18.4615 18.4615 20.9412 18.4615 24C18.4615 27.0588 20.9412 29.5385 24 29.5385Z" fill="#FA4C25"/>
<path d="M54.2451 9.64238V6.20969H67.4619V9.64238H62.9553V20.3076H58.6966V9.64238H54.2451Z" fill="white"/>
<path d="M75.7522 20.5738C74.2715 20.5738 72.9987 20.2709 71.934 19.6651C70.8755 19.0532 70.0586 18.2027 69.4834 17.1135C68.9144 16.0183 68.6298 14.7486 68.6298 13.3045C68.6298 11.8544 68.9144 10.5847 69.4834 9.49553C70.0586 8.40025 70.8755 7.54972 71.934 6.94395C72.9987 6.33207 74.2715 6.02612 75.7522 6.02612C77.233 6.02612 78.5027 6.33207 79.5612 6.94395C80.6259 7.54972 81.4428 8.40025 82.0118 9.49553C82.587 10.5847 82.8746 11.8544 82.8746 13.3045C82.8746 14.7486 82.587 16.0183 82.0118 17.1135C81.4428 18.2027 80.6259 19.0532 79.5612 19.6651C78.5027 20.2709 77.233 20.5738 75.7522 20.5738ZM75.7798 17.187C76.3182 17.187 76.7741 17.0218 77.1473 16.6913C77.5206 16.3609 77.8051 15.902 78.0009 15.3146C78.2028 14.7272 78.3038 14.048 78.3038 13.277C78.3038 12.4938 78.2028 11.8085 78.0009 11.2211C77.8051 10.6336 77.5206 10.1747 77.1473 9.8443C76.7741 9.51388 76.3182 9.34868 75.7798 9.34868C75.2229 9.34868 74.7518 9.51388 74.3663 9.8443C73.9869 10.1747 73.6963 10.6336 73.4944 11.2211C73.2985 11.8085 73.2006 12.4938 73.2006 13.277C73.2006 14.048 73.2985 14.7272 73.4944 15.3146C73.6963 15.902 73.9869 16.3609 74.3663 16.6913C74.7518 17.0218 75.2229 17.187 75.7798 17.187Z" fill="white"/>
<path d="M97.8674 6.20969V20.3076H93.6454V6.20969H97.8674ZM95.7288 12.2215V15.6542C95.4902 15.7766 95.1537 15.8959 94.7192 16.0121C94.2909 16.1223 93.8381 16.2141 93.3608 16.2875C92.8897 16.3609 92.4705 16.3976 92.1034 16.3976C89.9373 16.3976 88.2393 15.9846 87.0094 15.1586C85.7857 14.3264 85.1738 12.9741 85.1738 11.1017V6.20051H89.3683V11.1017C89.3683 11.5851 89.4447 11.9614 89.5977 12.2307C89.7568 12.4999 90.0322 12.6896 90.4238 12.7997C90.8215 12.9099 91.3814 12.9649 92.1034 12.9649C92.6541 12.9649 93.217 12.9037 93.7922 12.7814C94.3735 12.6529 95.0191 12.4662 95.7288 12.2215Z" fill="white"/>
<path d="M100.596 20.3076V6.20969H105.084V11.4597H106.075L109.499 6.20969H114.694L109.948 13.2678L114.739 20.3076H109.48L106.387 15.6266H105.084V20.3076H100.596Z" fill="white"/>
<path d="M120.118 20.5462C119.218 20.5462 118.42 20.3963 117.722 20.0965C117.031 19.7905 116.483 19.3316 116.079 18.7197C115.682 18.1017 115.483 17.3277 115.483 16.3976C115.483 15.6144 115.621 14.9536 115.896 14.4151C116.171 13.8766 116.551 13.4391 117.034 13.1026C117.517 12.7661 118.074 12.5121 118.704 12.3408C119.335 12.1634 120.008 12.044 120.724 11.9829C121.525 11.9094 122.171 11.8329 122.66 11.7534C123.15 11.6677 123.505 11.5484 123.725 11.3954C123.951 11.2363 124.065 11.013 124.065 10.7254V10.6795C124.065 10.2084 123.902 9.8443 123.578 9.58731C123.254 9.33032 122.816 9.20182 122.266 9.20182C121.672 9.20182 121.195 9.33032 120.834 9.58731C120.473 9.8443 120.243 10.1992 120.145 10.652L116.006 10.5051C116.128 9.6485 116.444 8.88364 116.951 8.21056C117.465 7.53137 118.169 6.99902 119.062 6.61354C119.962 6.22193 121.042 6.02612 122.302 6.02612C123.202 6.02612 124.031 6.1332 124.79 6.34736C125.548 6.55541 126.209 6.86135 126.772 7.2652C127.335 7.66292 127.77 8.15243 128.076 8.73373C128.388 9.31502 128.544 9.97892 128.544 10.7254V20.3076H124.322V18.3434H124.211C123.961 18.8207 123.639 19.2245 123.248 19.555C122.862 19.8854 122.406 20.1332 121.88 20.2984C121.36 20.4636 120.773 20.5462 120.118 20.5462ZM121.504 17.6092C121.987 17.6092 122.422 17.5113 122.807 17.3155C123.199 17.1197 123.511 16.8504 123.743 16.5078C123.976 16.159 124.092 15.7551 124.092 15.2962V13.9562C123.964 14.0235 123.808 14.0847 123.624 14.1398C123.447 14.1948 123.251 14.2468 123.037 14.2958C122.822 14.3447 122.602 14.3876 122.376 14.4243C122.149 14.461 121.932 14.4947 121.724 14.5252C121.302 14.5926 120.941 14.6966 120.641 14.8373C120.347 14.978 120.121 15.1616 119.962 15.388C119.809 15.6083 119.732 15.8714 119.732 16.1773C119.732 16.6424 119.898 16.9973 120.228 17.242C120.565 17.4868 120.99 17.6092 121.504 17.6092Z" fill="white"/>
<path d="M61.5419 42.7276C60.055 42.7276 58.7792 42.4217 57.7145 41.8098C56.656 41.1979 55.8421 40.3474 55.2731 39.2582C54.704 38.1629 54.4195 36.8963 54.4195 35.4584C54.4195 34.0143 54.704 32.7477 55.2731 31.6586C55.8483 30.5633 56.6651 29.7097 57.7237 29.0978C58.7884 28.4859 60.0581 28.18 61.5327 28.18C62.836 28.18 63.9711 28.4155 64.9379 28.8867C65.9108 29.3579 66.6695 30.0248 67.2141 30.8876C67.7648 31.7442 68.0554 32.7508 68.086 33.9072H63.8915C63.8059 33.1852 63.5611 32.6192 63.1573 32.2093C62.7595 31.7993 62.2394 31.5943 61.597 31.5943C61.0768 31.5943 60.621 31.7412 60.2294 32.0349C59.8378 32.3225 59.5318 32.7508 59.3116 33.3198C59.0974 33.8828 58.9903 34.5803 58.9903 35.4125C58.9903 36.2447 59.0974 36.9483 59.3116 37.5235C59.5318 38.0926 59.8378 38.5239 60.2294 38.8176C60.621 39.1052 61.0768 39.249 61.597 39.249C62.013 39.249 62.3802 39.1603 62.6984 38.9829C63.0227 38.8054 63.2888 38.5454 63.4969 38.2027C63.7049 37.8539 63.8365 37.4317 63.8915 36.9361H68.086C68.0432 38.0987 67.7525 39.1144 67.2141 39.9833C66.6817 40.8522 65.9322 41.5283 64.9654 42.0117C64.0047 42.489 62.8636 42.7276 61.5419 42.7276Z" fill="white"/>
<path d="M69.4903 31.7962V28.3635H82.7071V31.7962H78.2005V42.4614H73.9418V31.7962H69.4903Z" fill="white"/>
<path d="M88.3908 42.7001C87.4913 42.7001 86.6928 42.5502 85.9952 42.2503C85.3038 41.9444 84.7562 41.4855 84.3523 40.8736C83.9546 40.2556 83.7557 39.4815 83.7557 38.5515C83.7557 37.7683 83.8934 37.1074 84.1687 36.569C84.4441 36.0305 84.8235 35.593 85.3069 35.2565C85.7902 34.9199 86.3471 34.666 86.9773 34.4947C87.6076 34.3172 88.2806 34.1979 88.9965 34.1367C89.7981 34.0633 90.4437 33.9868 90.9332 33.9072C91.4227 33.8216 91.7776 33.7023 91.9979 33.5493C92.2243 33.3902 92.3374 33.1669 92.3374 32.8793V32.8334C92.3374 32.3622 92.1753 31.9982 91.851 31.7412C91.5267 31.4842 91.0892 31.3557 90.5385 31.3557C89.945 31.3557 89.4677 31.4842 89.1067 31.7412C88.7457 31.9982 88.5162 32.353 88.4183 32.8058L84.2789 32.659C84.4013 31.8023 84.7164 31.0375 85.2243 30.3644C85.7382 29.6852 86.4419 29.1529 87.3353 28.7674C88.2347 28.3758 89.3147 28.18 90.5752 28.18C91.4747 28.18 92.3038 28.287 93.0625 28.5012C93.8213 28.7093 94.4821 29.0152 95.0451 29.419C95.608 29.8168 96.0424 30.3063 96.3484 30.8876C96.6604 31.4689 96.8165 32.1328 96.8165 32.8793V42.4614H92.5944V40.4973H92.4843C92.2334 40.9745 91.9122 41.3784 91.5206 41.7088C91.1351 42.0392 90.6792 42.287 90.153 42.4523C89.6329 42.6175 89.0455 42.7001 88.3908 42.7001ZM89.7767 39.763C90.2601 39.763 90.6945 39.6651 91.08 39.4693C91.4716 39.2735 91.7837 39.0043 92.0162 38.6616C92.2487 38.3128 92.365 37.909 92.365 37.4501V36.11C92.2365 36.1773 92.0805 36.2385 91.8969 36.2936C91.7194 36.3487 91.5236 36.4007 91.3095 36.4496C91.0953 36.4986 90.875 36.5414 90.6486 36.5781C90.4222 36.6148 90.205 36.6485 89.997 36.6791C89.5748 36.7464 89.2138 36.8504 88.9139 36.9912C88.6202 37.1319 88.3938 37.3155 88.2347 37.5419C88.0818 37.7621 88.0053 38.0252 88.0053 38.3312C88.0053 38.7962 88.1705 39.1511 88.5009 39.3959C88.8374 39.6406 89.2627 39.763 89.7767 39.763Z" fill="white"/>
<path d="M99.5608 47.7481V28.3635H104.003V30.7774H104.141C104.324 30.3491 104.584 29.9361 104.921 29.5384C105.264 29.1406 105.698 28.8163 106.224 28.5655C106.757 28.3085 107.393 28.18 108.133 28.18C109.112 28.18 110.027 28.437 110.878 28.9509C111.734 29.4649 112.426 30.2573 112.952 31.3281C113.478 32.3989 113.741 33.7634 113.741 35.4217C113.741 37.0187 113.487 38.3557 112.979 39.4326C112.478 40.5095 111.799 41.3172 110.942 41.8557C110.091 42.3941 109.146 42.6634 108.106 42.6634C107.396 42.6634 106.781 42.5471 106.261 42.3146C105.741 42.0821 105.303 41.7761 104.948 41.3968C104.6 41.0174 104.33 40.6105 104.141 40.176H104.049V47.7481H99.5608ZM103.957 35.4125C103.957 36.1712 104.058 36.8321 104.26 37.395C104.468 37.9579 104.765 38.3954 105.15 38.7075C105.542 39.0134 106.01 39.1664 106.555 39.1664C107.105 39.1664 107.573 39.0134 107.959 38.7075C108.344 38.3954 108.635 37.9579 108.831 37.395C109.033 36.8321 109.134 36.1712 109.134 35.4125C109.134 34.6537 109.033 33.996 108.831 33.4391C108.635 32.8823 108.344 32.4509 107.959 32.145C107.58 31.8391 107.111 31.6861 106.555 31.6861C106.004 31.6861 105.536 31.836 105.15 32.1358C104.765 32.4356 104.468 32.864 104.26 33.4208C104.058 33.9776 103.957 34.6415 103.957 35.4125Z" fill="white"/>
<path d="M114.873 31.7962V28.3635H128.089V31.7962H123.583V42.4614H119.324V31.7962H114.873Z" fill="white"/>
<path d="M133.773 42.7001C132.874 42.7001 132.075 42.5502 131.377 42.2503C130.686 41.9444 130.138 41.4855 129.735 40.8736C129.337 40.2556 129.138 39.4815 129.138 38.5515C129.138 37.7683 129.276 37.1074 129.551 36.569C129.826 36.0305 130.206 35.593 130.689 35.2565C131.172 34.9199 131.729 34.666 132.36 34.4947C132.99 34.3172 133.663 34.1979 134.379 34.1367C135.18 34.0633 135.826 33.9868 136.315 33.9072C136.805 33.8216 137.16 33.7023 137.38 33.5493C137.606 33.3902 137.72 33.1669 137.72 32.8793V32.8334C137.72 32.3622 137.558 31.9982 137.233 31.7412C136.909 31.4842 136.471 31.3557 135.921 31.3557C135.327 31.3557 134.85 31.4842 134.489 31.7412C134.128 31.9982 133.898 32.353 133.801 32.8058L129.661 32.659C129.783 31.8023 130.099 31.0375 130.606 30.3644C131.12 29.6852 131.824 29.1529 132.717 28.7674C133.617 28.3758 134.697 28.18 135.957 28.18C136.857 28.18 137.686 28.287 138.445 28.5012C139.203 28.7093 139.864 29.0152 140.427 29.419C140.99 29.8168 141.425 30.3063 141.731 30.8876C142.043 31.4689 142.199 32.1328 142.199 32.8793V42.4614H137.977V40.4973H137.867C137.616 40.9745 137.294 41.3784 136.903 41.7088C136.517 42.0392 136.061 42.287 135.535 42.4523C135.015 42.6175 134.428 42.7001 133.773 42.7001ZM135.159 39.763C135.642 39.763 136.077 39.6651 136.462 39.4693C136.854 39.2735 137.166 39.0043 137.398 38.6616C137.631 38.3128 137.747 37.909 137.747 37.4501V36.11C137.619 36.1773 137.463 36.2385 137.279 36.2936C137.102 36.3487 136.906 36.4007 136.692 36.4496C136.478 36.4986 136.257 36.5414 136.031 36.5781C135.804 36.6148 135.587 36.6485 135.379 36.6791C134.957 36.7464 134.596 36.8504 134.296 36.9912C134.002 37.1319 133.776 37.3155 133.617 37.5419C133.464 37.7621 133.387 38.0252 133.387 38.3312C133.387 38.7962 133.553 39.1511 133.883 39.3959C134.22 39.6406 134.645 39.763 135.159 39.763Z" fill="white"/>
</svg>
