<svg width="60" height="60" viewBox="0 0 60 60" fill="none" xmlns="http://www.w3.org/2000/svg">
<g clip-path="url(#clip0_104_6)">
<path d="M46.7886 9.16245C46.4912 8.76041 45.9632 8.59176 45.4786 8.74437C45.2619 8.81234 45.0761 8.93802 44.9382 9.10153C41.3648 1.35376 31.9349 0.0661575 31.4955 0.0103461C30.8848 -0.0704475 30.3162 0.33031 30.196 0.920236C29.8349 2.68158 28.1264 3.66534 26.7527 4.10838C26.1794 2.79005 24.9705 2.30978 24.2752 2.24691C23.763 2.20651 23.2797 2.48865 23.0847 2.95289C22.9074 3.37545 23.0066 3.85636 23.3244 4.1789C23.243 5.08751 20.7248 8.12181 17.1513 10.7392C13.8668 13.1457 13.9936 15.8652 14.1958 16.9141C13.922 17.0859 13.633 17.3289 13.3395 17.6726C11.5752 19.7406 10.2979 24.5317 11.1562 29.8295C9.47919 31.2254 9.86268 35.5549 10.8187 38.246C11.8352 41.1046 13.5904 42.7781 15.6936 42.9372C16.2439 46.4644 17.5762 49.0723 19.2289 50.994V50.9998C19.3189 52.7997 19.2525 56.107 17.7902 58.0384C17.4054 58.5463 17.5157 59.2625 18.0358 59.6383C18.2453 59.7896 18.4889 59.8614 18.7305 59.8614C19.089 59.8614 19.4436 59.7018 19.6734 59.3985C20.9828 57.6672 21.4561 55.3101 21.5679 53.1633C25.6057 56.1585 30.1561 56.3822 30.2323 56.3855H30.2763C30.3288 56.3855 30.382 56.3823 30.4332 56.3759C33.0846 56.0257 35.1754 55.1319 36.8309 53.963C37.0023 55.902 37.4993 57.9776 38.6786 59.5358C38.9084 59.8391 39.263 60 39.6216 60C39.8639 60 40.1068 59.9269 40.3169 59.7756C40.837 59.3998 40.9473 58.6836 40.5625 58.1757C39.2768 56.4778 39.0792 53.6924 39.1002 51.9252C42.3275 48.2644 42.9211 43.6393 42.9999 42.8565C44.7229 42.4916 46.1445 41.0822 47.0725 38.7688C48.0495 36.329 48.5269 32.3848 47.4454 30.469C52.3117 21.656 49.1501 12.3549 46.7888 9.16215L46.7886 9.16245ZM14.5657 20.0055C14.8901 19.3681 15.2118 18.9622 15.4561 18.834C16.1186 19.0026 17.8567 20.6871 19.3172 22.5607C19.1924 23.0371 19.0007 23.6745 18.7518 24.3145L14.5657 20.0055ZM13.4809 38.5513C12.0659 35.7574 12.1939 32.1154 12.6463 31.5916C13.804 30.8067 15.0307 31.7243 15.4496 32.0962C15.464 32.2751 15.4752 32.4617 15.4896 32.638C15.5658 33.5351 15.6374 34.3822 15.6374 35.0959V40.6161C14.6288 40.3994 13.9182 39.4158 13.481 38.5514L13.4809 38.5513ZM40.671 42.6204C40.6316 43.109 40.2179 47.2539 37.3406 50.4573C37.1521 50.5676 36.9991 50.7285 36.8987 50.9228C35.3707 52.438 33.2301 53.675 30.2278 54.0936C29.0932 54.0211 19.5483 53.0926 17.9803 42.4375V35.0955C17.9803 34.2876 17.9048 33.3957 17.8247 32.4493C17.7885 32.019 17.7564 31.5746 17.7249 31.1303C17.9475 30.3486 18.4478 28.888 19.2955 27.9774C20.3652 26.829 21.0527 24.9644 21.4171 23.7351C24.2689 24.4706 31.6764 25.8929 39.1247 23.2676C39.2311 23.251 39.3847 23.2446 39.5023 23.251C39.5075 25.2241 39.6736 29.2926 40.8464 31.2829L40.7919 32.0036C40.7302 32.7981 40.6717 33.5496 40.6717 34.1716L40.671 42.6204ZM44.5754 38.6289C44.1171 39.5234 43.5944 40.121 43.0126 40.4262V34.1712C43.0126 33.6358 43.0678 32.9273 43.1262 32.1776L43.1413 31.9775C43.1728 31.9436 43.2076 31.9153 43.2345 31.8769C43.2359 31.8756 43.2359 31.8749 43.2359 31.8737C43.7178 31.5518 44.7172 31.0074 45.362 31.5178C45.8682 32.1 46.0127 35.8197 44.5753 38.6288L44.5754 38.6289Z" fill="#787675"/>
</g>
<defs>
<clipPath id="clip0_104_6">
<rect width="60" height="60" fill="white"/>
</clipPath>
</defs>
</svg>
