<svg width="25" height="24" viewBox="0 0 25 24" fill="none" xmlns="http://www.w3.org/2000/svg">
<g clip-path="url(#clip0_101_6)">
<path d="M19.2154 3.66498C19.0965 3.50416 18.8853 3.4367 18.6914 3.49775C18.6048 3.52494 18.5304 3.57521 18.4753 3.64061C17.0459 0.541503 13.274 0.026463 13.0982 0.00413844C12.8539 -0.028179 12.6265 0.132124 12.5784 0.368095C12.4339 1.07263 11.7505 1.46613 11.2011 1.64335C10.9718 1.11602 10.4882 0.923911 10.2101 0.898763C10.0052 0.882604 9.8119 0.995461 9.73389 1.18116C9.66298 1.35018 9.70264 1.54254 9.82976 1.67156C9.79719 2.035 8.7899 3.24873 7.36052 4.29568C6.04673 5.25826 6.09743 6.34606 6.17832 6.76563C6.06879 6.83437 5.95322 6.93158 5.83581 7.06906C5.13006 7.89625 4.61917 9.81268 4.9625 11.9318C4.29168 12.4902 4.44507 14.222 4.8275 15.2984C5.23409 16.4418 5.93614 17.1112 6.77745 17.1749C6.99755 18.5858 7.53046 19.6289 8.19156 20.3976V20.3999C8.22755 21.1199 8.20102 22.4428 7.61609 23.2154C7.46217 23.4185 7.5063 23.705 7.71432 23.8553C7.7981 23.9158 7.89555 23.9446 7.9922 23.9446C8.13561 23.9446 8.27745 23.8807 8.36938 23.7594C8.89311 23.0669 9.08246 22.124 9.12717 21.2653C10.7423 22.4634 12.5624 22.5529 12.5929 22.5542H12.6105C12.6315 22.5542 12.6528 22.5529 12.6733 22.5503C13.7338 22.4103 14.5702 22.0528 15.2324 21.5852C15.3009 22.3608 15.4997 23.1911 15.9714 23.8143C16.0634 23.9356 16.2052 24 16.3486 24C16.4455 24 16.5427 23.9708 16.6268 23.9102C16.8348 23.7599 16.8789 23.4734 16.725 23.2703C16.2107 22.5911 16.1317 21.477 16.1401 20.7701C17.431 19.3058 17.6684 17.4557 17.7 17.1426C18.3892 16.9966 18.9578 16.4329 19.329 15.5075C19.7198 14.5316 19.9108 12.9539 19.4782 12.1876C21.4247 8.66241 20.16 4.94196 19.2155 3.66486L19.2154 3.66498ZM6.32628 8.00218C6.45603 7.74724 6.58473 7.58488 6.68244 7.53359C6.94745 7.60104 7.64269 8.27483 8.22687 9.02428C8.17696 9.21484 8.10027 9.46979 8.00072 9.72579L6.32628 8.00218ZM5.89237 15.4205C5.32635 14.303 5.37757 12.8462 5.55854 12.6366C6.0216 12.3227 6.51227 12.6897 6.67983 12.8385C6.68561 12.91 6.69007 12.9847 6.69585 13.0552C6.72632 13.414 6.75495 13.7529 6.75495 14.0384V16.2464C6.35151 16.1598 6.06729 15.7663 5.8924 15.4206L5.89237 15.4205ZM16.7684 17.0482C16.7526 17.2436 16.5872 18.9016 15.4362 20.1829C15.3609 20.227 15.2997 20.2914 15.2595 20.3691C14.6483 20.9752 13.792 21.47 12.5911 21.6374C12.1373 21.6084 8.31933 21.2371 7.69211 16.975V14.0382C7.69211 13.715 7.66191 13.3583 7.62987 12.9797C7.61542 12.8076 7.60255 12.6299 7.58994 12.4521C7.67898 12.1395 7.87913 11.5552 8.21822 11.191C8.64608 10.7316 8.92107 9.98577 9.06685 9.49404C10.2076 9.78823 13.1706 10.3571 16.1499 9.30705C16.1924 9.30039 16.2539 9.29782 16.3009 9.30039C16.303 10.0896 16.3695 11.717 16.8386 12.5132L16.8168 12.8014C16.7921 13.1192 16.7687 13.4198 16.7687 13.6686L16.7684 17.0482ZM18.3302 15.4516C18.1468 15.8094 17.9378 16.0484 17.705 16.1705V13.6685C17.705 13.4543 17.7271 13.1709 17.7505 12.871L17.7565 12.791C17.7691 12.7774 17.7831 12.7661 17.7938 12.7507C17.7943 12.7502 17.7943 12.75 17.7943 12.7495C17.9871 12.6207 18.3869 12.403 18.6448 12.6071C18.8473 12.84 18.9051 14.3279 18.3301 15.4515L18.3302 15.4516Z" fill="#787675"/>
</g>
<defs>
<clipPath id="clip0_101_6">
<rect width="24" height="24" fill="white" transform="translate(0.5)"/>
</clipPath>
</defs>
</svg>
