<svg width="32" height="32" viewBox="0 0 32 32" fill="none" xmlns="http://www.w3.org/2000/svg">
<path fill-rule="evenodd" clip-rule="evenodd" d="M15.6667 5.33334C16.219 5.33334 16.6667 5.78106 16.6667 6.33334L16.6667 25.6667C16.6667 26.219 16.219 26.6667 15.6667 26.6667C15.1144 26.6667 14.6667 26.219 14.6667 25.6667L14.6667 6.33334C14.6667 5.78106 15.1144 5.33334 15.6667 5.33334Z" fill="#787675"/>
<path fill-rule="evenodd" clip-rule="evenodd" d="M26.6667 15.6667C26.6667 16.2189 26.219 16.6667 25.6667 16.6667L6.33334 16.6667C5.78106 16.6667 5.33334 16.2189 5.33334 15.6667C5.33334 15.1144 5.78106 14.6667 6.33334 14.6667L25.6667 14.6667C26.219 14.6667 26.6667 15.1144 26.6667 15.6667Z" fill="#787675"/>
</svg>
