<svg width="24" height="24" viewBox="0 0 24 24" fill="none" xmlns="http://www.w3.org/2000/svg">
<path fill-rule="evenodd" clip-rule="evenodd" d="M11 8C11.5523 8 12 8.44772 12 9L12 14.5858L13.7929 12.7929C14.1834 12.4024 14.8166 12.4024 15.2071 12.7929C15.5976 13.1834 15.5976 13.8166 15.2071 14.2071L11 18.4142L6.79289 14.2071C6.40237 13.8166 6.40237 13.1834 6.79289 12.7929C7.18342 12.4024 7.81658 12.4024 8.20711 12.7929L10 14.5858L10 9C10 8.44772 10.4477 8 11 8Z" fill="#111111"/>
<path fill-rule="evenodd" clip-rule="evenodd" d="M6 3C5.44772 3 5 3.44772 5 4V19C5 19.5523 5.44772 20 6 20H19C19.5523 20 20 19.5523 20 19V8.82843C20 8.56321 19.8946 8.30886 19.7071 8.12132L14.8787 3.29289C14.6911 3.10536 14.4368 3 14.1716 3H6ZM3 4C3 2.34315 4.34315 1 6 1H14.1716C14.9672 1 15.7303 1.31607 16.2929 1.87868L21.1213 6.70711C21.6839 7.26972 22 8.03278 22 8.82843V19C22 20.6569 20.6569 22 19 22H6C4.34315 22 3 20.6569 3 19V4Z" fill="#111111"/>
<path fill-rule="evenodd" clip-rule="evenodd" d="M15 1C15.5523 1 16 1.44772 16 2V6C16 6.55228 16.4477 7 17 7H21C21.5523 7 22 7.44772 22 8C22 8.55228 21.5523 9 21 9H17C15.3431 9 14 7.65685 14 6V2C14 1.44772 14.4477 1 15 1Z" fill="#111111"/>
</svg>
