<svg width="24" height="24" viewBox="0 0 24 24" fill="none" xmlns="http://www.w3.org/2000/svg">
<path fill-rule="evenodd" clip-rule="evenodd" d="M3 8C3 7.44772 3.44772 7 4 7H8C8.55228 7 9 7.44772 9 8C9 8.55228 8.55228 9 8 9H4C3.44772 9 3 8.55228 3 8Z" fill="black"/>
<path fill-rule="evenodd" clip-rule="evenodd" d="M21 17C21 17.5523 20.5523 18 20 18L16 18C15.4477 18 15 17.5523 15 17C15 16.4477 15.4477 16 16 16L20 16C20.5523 16 21 16.4477 21 17Z" fill="black"/>
<path fill-rule="evenodd" clip-rule="evenodd" d="M12 8C12 7.44772 12.4477 7 13 7H20C20.5523 7 21 7.44772 21 8C21 8.55228 20.5523 9 20 9H13C12.4477 9 12 8.55228 12 8Z" fill="black"/>
<path fill-rule="evenodd" clip-rule="evenodd" d="M12 17C12 17.5523 11.5523 18 11 18L4 18C3.44771 18 3 17.5523 3 17C3 16.4477 3.44771 16 4 16L11 16C11.5523 16 12 16.4477 12 17Z" fill="black"/>
<path fill-rule="evenodd" clip-rule="evenodd" d="M9 5C9.55228 5 10 5.44772 10 6L10 10C10 10.5523 9.55228 11 9 11C8.44772 11 8 10.5523 8 10L8 6C8 5.44772 8.44772 5 9 5Z" fill="black"/>
<path fill-rule="evenodd" clip-rule="evenodd" d="M15 20C14.4477 20 14 19.5523 14 19L14 15C14 14.4477 14.4477 14 15 14C15.5523 14 16 14.4477 16 15L16 19C16 19.5523 15.5523 20 15 20Z" fill="black"/>
</svg>
