<svg width="61" height="60" viewBox="0 0 61 60" fill="none" xmlns="http://www.w3.org/2000/svg">
<path d="M35.2404 29.8268L39.3731 25.6941C39.4837 25.5835 39.5461 25.4332 39.5461 25.2768V23.5056C39.5461 23.3644 39.4956 23.2282 39.4036 23.1213L35.8613 18.9885V18.9882C35.7491 18.8576 35.5854 18.7822 35.4134 18.7822H33.6422V19.9632H35.1416L38.3652 23.7241V25.0324L34.4054 28.9922L35.2404 29.8268Z" fill="#111111"/>
<path d="M34.2327 42.3981H37.1848C37.5108 42.3981 37.7751 42.1338 37.7751 41.8078V31.7706C37.7751 31.6141 37.7128 31.4639 37.6021 31.3533L35.2406 28.9917C35.1296 28.8808 34.9797 28.8187 34.8229 28.8187H25.3769C25.2205 28.8187 25.0702 28.8808 24.9596 28.9917L22.0075 31.9439V31.9435C21.7771 32.1742 21.7771 32.5479 22.0075 32.7785L24.9596 35.7306C25.0702 35.8413 25.2205 35.9033 25.3769 35.9036H31.8714C32.0279 35.9033 32.1781 35.8413 32.2888 35.7306L32.5125 35.5069C32.698 37.692 33.0841 39.8553 33.6654 41.97C33.738 42.223 33.9696 42.3979 34.2329 42.3979L34.2327 42.3981ZM36.5942 41.2172H34.6862V41.2175C34.0713 38.9027 33.7209 36.5259 33.6424 34.1326C33.6424 33.4111 33.8755 32.3614 34.2327 32.3614V31.1805C33.0047 31.1805 32.5204 32.584 32.4668 33.8827L31.6265 34.7229H25.6209L23.2594 32.3614L25.6209 29.9998L34.5787 29.9995L36.5942 32.0154L36.5942 41.2172Z" fill="#111111"/>
<path d="M30.7132 41.9705L31.848 41.6463C31.2795 39.5619 30.904 37.4297 30.7263 35.2764L29.5454 35.3509C29.7255 37.589 30.1163 39.8056 30.7132 41.9705V41.9705Z" fill="#111111"/>
<path d="M34.2326 45.9407H42.4978C42.8241 45.9407 43.0884 45.6764 43.0884 45.3504C43.0884 44.7601 43.0027 41.808 41.3172 41.808C39.9683 41.697 38.6275 41.5038 37.3023 41.2292L37.0707 42.3865H37.071C38.472 42.6791 39.8901 42.8801 41.3172 42.9886C41.5317 42.9886 41.7984 43.7881 41.8817 44.7598H34.8226V41.808H33.6417V45.3504H33.642C33.642 45.5068 33.704 45.6571 33.8147 45.7677C33.9256 45.8787 34.0756 45.9407 34.2323 45.9407L34.2326 45.9407Z" fill="#111111"/>
<path d="M34.2325 41.2181H31.2804V42.399H34.2325V41.2181Z" fill="#111111"/>
<path d="M31.8709 41.8085H30.69V45.3509H31.8709V41.8085Z" fill="#111111"/>
<path d="M34.1106 23.6282L34.9456 22.7932L34.0601 21.9077H34.0598C33.9492 21.7971 33.799 21.7347 33.6425 21.7347H28.9192V19.9635H33.6425V18.7826H28.3288C28.1721 18.7826 28.0218 18.8449 27.9112 18.9556C27.8006 19.0662 27.7382 19.2164 27.7382 19.3732V22.3253V22.325C27.7382 22.4818 27.8005 22.6317 27.9112 22.7427C28.0218 22.8533 28.1721 22.9153 28.3288 22.9153H33.3978L34.1106 23.6282Z" fill="#111111"/>
<path d="M30.5903 22.6524L29.6079 21.9973L24.8849 29.0821L25.8673 29.7373L30.5903 22.6524Z" fill="#111111"/>
<path d="M25.46 27.0479C25.9063 27.046 26.337 26.8839 26.6739 26.5916C27.0109 26.2989 27.2318 25.8953 27.296 25.4537L27.6591 22.9148H28.3283V21.7342H27.1474C26.8538 21.7342 26.6044 21.9499 26.563 22.2407L26.1279 25.2878C26.0786 25.6388 25.766 25.8922 25.4123 25.8669C25.0585 25.842 24.7849 25.5471 24.7858 25.1928V20.7976L25.6205 19.963H28.3283V18.782H25.3762C25.2197 18.782 25.0695 18.8444 24.9589 18.955L23.7779 20.1359C23.6673 20.2466 23.6049 20.3968 23.6049 20.5533V25.1927C23.6056 25.6846 23.8013 26.1558 24.1491 26.5036C24.4966 26.8515 24.9682 27.0472 25.46 27.0478L25.46 27.0479Z" fill="#111111"/>
<path d="M43.0882 19.9636H45.4497C45.7757 19.9636 46.04 19.6993 46.04 19.3733V14.0596C46.04 13.7333 45.7757 13.469 45.4497 13.469H37.1846C37.0278 13.469 36.8776 13.5313 36.7669 13.642C36.6563 13.7526 36.594 13.9028 36.594 14.0596V16.4211C36.594 16.5776 36.6563 16.7278 36.7669 16.8385C36.8776 16.9494 37.0278 17.0115 37.1846 17.0115H41.3173V18.1924C41.3173 18.3488 41.3797 18.4991 41.4903 18.6097L42.6712 19.7906H42.6709C42.7819 19.9013 42.9318 19.9636 43.0886 19.9636L43.0882 19.9636ZM44.8594 18.7826H43.3325L42.4975 17.948V17.0114H44.8594V18.7826ZM44.8594 15.8308H37.7745V14.6499H44.8594V15.8308Z" fill="#111111"/>
<path d="M41.9072 22.3244H44.2688C44.5951 22.3244 44.8594 22.0601 44.8594 21.7341V19.3726H43.6784V21.1438H42.1516L41.3169 20.3088V18.1917H40.136V20.5532C40.136 20.71 40.1983 20.8599 40.3089 20.9705L41.4899 22.1515C41.6005 22.2621 41.7507 22.3245 41.9072 22.3245L41.9072 22.3244Z" fill="#111111"/>
<path d="M38.3647 20.554H40.7262V19.3734H38.609L38.1917 18.956L37.3567 19.791L37.947 20.3813L37.9474 20.381C38.058 20.4916 38.2082 20.554 38.3647 20.554H38.3647Z" fill="#111111"/>
<path d="M39.3732 23.9234L40.4553 22.8414L42.0944 22.2953L41.7213 21.1736L39.9501 21.7639C39.8631 21.7932 39.784 21.8421 39.7191 21.9066L38.5382 23.0876L39.3732 23.9234Z" fill="#111111"/>
<path d="M36.3309 21.0447L38.1021 19.8638V19.8641C38.2664 19.7544 38.3649 19.5702 38.3649 19.3729V16.4208H37.1839V19.0568L35.6755 20.0604L36.3309 21.0447Z" fill="#111111"/>
<path d="M37.1848 14.0593H38.3655V13.1228L39.2004 12.2881H43.4347L44.2694 13.1228V14.0593H45.4503V12.8784C45.4503 12.722 45.388 12.5717 45.2773 12.4611L44.0964 11.2802C43.9858 11.1695 43.8355 11.1072 43.6791 11.1072H38.9558C38.7993 11.1072 38.6491 11.1695 38.5384 11.2802L37.3575 12.4611H37.3578C37.2469 12.5717 37.1848 12.722 37.1848 12.8784L37.1848 14.0593Z" fill="#111111"/>
<path d="M41.9074 17.6019H37.7747V18.7828H41.9074V17.6019Z" fill="#111111"/>
<path d="M20.0624 48.8928H46.6307C46.7872 48.8928 46.9374 48.8305 47.0481 48.7198L48.229 47.5389C48.3396 47.4283 48.402 47.278 48.402 47.1216V42.9885C48.402 42.6625 48.1377 42.3982 47.8114 42.3982H46.0402C45.8837 42.3982 45.7335 42.4606 45.6228 42.5712C45.5122 42.6818 45.4499 42.8321 45.4499 42.9885V44.5154L45.2055 44.7598H42.4977V45.9407H45.4498C45.6063 45.9407 45.7565 45.8784 45.8672 45.7677L46.4575 45.1774H46.4578C46.5684 45.0668 46.6307 44.9166 46.6307 44.7598V43.5792H47.221V46.8773L46.3861 47.7119H20.0627C19.5394 47.7113 19.0307 47.5368 18.6172 47.2164C18.2033 46.896 17.9072 46.4472 17.7756 45.9407H34.2326V44.7598H17.111C16.9543 44.7598 16.804 44.8221 16.6934 44.9328C16.5827 45.0437 16.5204 45.1936 16.5204 45.3504C16.5213 46.2895 16.895 47.1902 17.5592 47.8541C18.2231 48.5182 19.1238 48.8919 20.0629 48.8929L20.0624 48.8928Z" fill="#111111"/>
<path d="M30.8632 19.7904L31.6981 18.9555L29.9269 17.1843C29.816 17.0736 29.6661 17.0113 29.5093 17.0113H22.4244V14.6497H29.8553L34.996 19.7904L35.8309 18.9555L30.5173 13.6418C30.4066 13.5311 30.2564 13.4688 30.0999 13.4688H21.834C21.6775 13.4688 21.5273 13.5311 21.4166 13.6418C21.3057 13.7524 21.2437 13.9026 21.2437 14.0594V17.6018C21.2437 17.7583 21.3057 17.9085 21.4166 18.0191C21.5273 18.1298 21.6775 18.1921 21.834 18.1921H29.2648L30.8632 19.7904Z" fill="#111111"/>
<path d="M21.8338 13.4689H20.0626V14.6498H21.8338V13.4689Z" fill="#111111"/>
<path d="M21.8338 15.2402H20.0626V16.4211H21.8338V15.2402Z" fill="#111111"/>
<path d="M21.8338 17.0115H20.0626V18.1924H21.8338V17.0115Z" fill="#111111"/>
<path d="M24.7858 14.0593H23.6048V17.6017H24.7858V14.0593Z" fill="#111111"/>
<path d="M37.1847 38.8564H33.6423V40.0373H37.1847V38.8564Z" fill="#111111"/>
<path d="M33.6422 38.8564H30.69V40.0373H33.6422V38.8564Z" fill="#111111"/>
<path d="M37.8933 26.8117L38.838 26.1033L37.2251 23.9531L37.7634 21.2619L36.6061 21.0303L36.0158 23.9825C35.9816 24.1479 36.0202 24.32 36.1221 24.4549L37.8933 26.8117Z" fill="#111111"/>
<path d="M34.2325 24.6861H26.5574V25.8671H34.2325V24.6861Z" fill="#111111"/>
<path d="M24.1954 24.6861H17.1106V25.8671H24.1954V24.6861Z" fill="#111111"/>
<path d="M14.7493 27.6383H17.1112C17.4372 27.6383 17.7015 27.374 17.7015 27.048V23.5056C17.7015 23.1796 17.4372 22.915 17.1112 22.915H14.7493C14.5929 22.915 14.4426 22.9773 14.332 23.088C14.221 23.1989 14.159 23.3488 14.159 23.5056V27.048C14.159 27.2045 14.221 27.3547 14.332 27.4653C14.4426 27.576 14.5929 27.6383 14.7493 27.6383V27.6383ZM16.5205 26.4574H15.3396L15.3399 24.0958H16.5205L16.5205 26.4574Z" fill="#111111"/>
<path d="M14.7492 24.6861H13.5683V25.8671H14.7492V24.6861Z" fill="#111111"/>
<path d="M27.738 40.0373H16.5207V41.2182H27.738V40.0373Z" fill="#111111"/>
<path d="M15.3398 40.0373H14.1589V41.2182H15.3398V40.0373Z" fill="#111111"/>
<path d="M22.4241 37.0851H14.7489V38.266H22.4241V37.0851Z" fill="#111111"/>
<path d="M13.5685 37.0851H12.3876V38.266H13.5685V37.0851Z" fill="#111111"/>
<path d="M21.8338 19.9636H14.7489V21.1445H21.8338V19.9636Z" fill="#111111"/>
<path d="M13.5685 19.9636H12.3876V21.1445H13.5685V19.9636Z" fill="#111111"/>
</svg>
