<svg width="100" height="100" viewBox="0 0 100 100" fill="none" xmlns="http://www.w3.org/2000/svg">
<path d="M58.5679 49.7114L65.4558 42.8235C65.6402 42.6391 65.7441 42.3887 65.7441 42.128V39.176C65.7441 38.9407 65.66 38.7136 65.5067 38.5355L59.6028 31.6476V31.6471C59.4158 31.4294 59.1431 31.3037 58.8563 31.3037H55.9043V33.2719H58.4034L63.776 39.5401V41.7207L57.1764 48.3203L58.5679 49.7114Z" fill="#111111"/>
<path d="M56.8884 70.6636H61.8086C62.352 70.6636 62.7925 70.2231 62.7925 69.6797V52.951C62.7925 52.6902 62.6886 52.4399 62.5042 52.2555L58.5683 48.3195C58.3834 48.1346 58.1335 48.0312 57.8722 48.0312H42.1289C41.8681 48.0312 41.6177 48.1346 41.4333 48.3195L36.5131 53.2398V53.2392C36.1292 53.6236 36.1292 54.2464 36.5131 54.6309L41.4333 59.5511C41.6177 59.7355 41.8681 59.8389 42.1289 59.8394H52.9531C53.2138 59.8389 53.4642 59.7355 53.6486 59.5511L54.0216 59.1781C54.3306 62.82 54.9742 66.4255 55.943 69.9499C56.064 70.3717 56.45 70.6631 56.8889 70.6631L56.8884 70.6636ZM60.8243 68.6953H57.6443V68.6959C56.6194 64.8379 56.0355 60.8766 55.9047 56.8877C55.9047 55.6852 56.2932 53.9357 56.8885 53.9357V51.9675C54.8418 51.9675 54.0346 54.3066 53.9453 56.4711L52.5449 57.8715H42.5356L38.5997 53.9356L42.5356 49.9997L57.4651 49.9992L60.8244 53.359L60.8243 68.6953Z" fill="#111111"/>
<path d="M51.0227 69.9508L52.9141 69.4106C51.9666 65.9365 51.3407 62.3829 51.0445 58.7941L49.0763 58.9182C49.3765 62.6484 50.0279 66.3427 51.0227 69.9508V69.9508Z" fill="#111111"/>
<path d="M56.8883 76.5678H70.6636C71.2075 76.5678 71.6479 76.1273 71.6479 75.584C71.6479 74.6002 71.5051 69.68 68.696 69.68C66.4478 69.4951 64.2131 69.173 62.0045 68.7154L61.6185 70.6441H61.619C63.954 71.1319 66.3174 71.4669 68.696 71.6477C69.0534 71.6477 69.4981 72.9801 69.6368 74.5997H57.8717V69.68H55.9035V75.584H55.904C55.904 75.8448 56.0074 76.0951 56.1918 76.2795C56.3767 76.4645 56.6266 76.5678 56.8879 76.5678L56.8883 76.5678Z" fill="#111111"/>
<path d="M56.8882 68.6968H51.968V70.665H56.8882V68.6968Z" fill="#111111"/>
<path d="M52.9521 69.6808H50.9839V75.5848H52.9521V69.6808Z" fill="#111111"/>
<path d="M56.685 39.3803L58.0767 37.9886L56.6009 36.5128H56.6003C56.4159 36.3284 56.1656 36.2245 55.9048 36.2245H48.0326V33.2725H55.9048V31.3043H47.0487C46.7874 31.3043 46.537 31.4082 46.3526 31.5926C46.1682 31.777 46.0643 32.0274 46.0643 32.2887V37.2089V37.2084C46.0643 37.4697 46.1682 37.7195 46.3526 37.9045C46.537 38.0889 46.7874 38.1922 47.0487 38.1922H55.497L56.685 39.3803Z" fill="#111111"/>
<path d="M50.8179 37.754L49.1806 36.6621L41.309 48.4702L42.9462 49.5621L50.8179 37.754Z" fill="#111111"/>
<path d="M42.2673 45.0797C43.0112 45.0766 43.729 44.8065 44.2906 44.3193C44.8521 43.8315 45.2204 43.1588 45.3274 42.4227L45.9326 38.1913H47.0478V36.2236H45.0796C44.5903 36.2236 44.1747 36.5831 44.1056 37.0678L43.3805 42.1463C43.2984 42.7312 42.7774 43.1536 42.1878 43.1115C41.5982 43.0699 41.1422 42.5785 41.1437 41.9879V34.6627L42.5348 33.2716H47.0479V31.3033H42.1276C41.8669 31.3033 41.6165 31.4072 41.4321 31.5916L39.4639 33.5599C39.2795 33.7443 39.1756 33.9946 39.1756 34.2554V41.9879C39.1766 42.8075 39.5028 43.5929 40.0825 44.1727C40.6617 44.7524 41.4477 45.0786 42.2674 45.0796L42.2673 45.0797Z" fill="#111111"/>
<path d="M71.6476 33.2727H75.5836C76.1269 33.2727 76.5674 32.8322 76.5674 32.2888V23.4327C76.5674 22.8889 76.1269 22.4484 75.5836 22.4484H61.8083C61.547 22.4484 61.2966 22.5523 61.1122 22.7367C60.9278 22.9211 60.8239 23.1714 60.8239 23.4327V27.3686C60.8239 27.6294 60.9278 27.8798 61.1122 28.0642C61.2966 28.2491 61.547 28.3525 61.8083 28.3525H68.6962V30.3207C68.6962 30.5814 68.8001 30.8318 68.9845 31.0162L70.9527 32.9845H70.9522C71.1371 33.1689 71.387 33.2728 71.6482 33.2728L71.6476 33.2727ZM74.5996 31.3044H72.0548L70.6632 29.9134V28.3524H74.5996V31.3044ZM74.5996 26.3848H62.7915V24.4165H74.5996V26.3848Z" fill="#111111"/>
<path d="M69.6794 37.2074H73.6153C74.1591 37.2074 74.5996 36.7669 74.5996 36.2236V32.2877H72.6314V35.2397H70.0866L68.6955 33.848V30.3195H66.7273V34.2554C66.7273 34.5166 66.8312 34.7665 67.0156 34.9509L68.9838 36.9191C69.1682 37.1035 69.4186 37.2074 69.6793 37.2074L69.6794 37.2074Z" fill="#111111"/>
<path d="M63.775 34.2566H67.7109V32.2889H64.1823L63.4868 31.5934L62.0952 32.985L63.079 33.9688L63.0795 33.9683C63.2639 34.1527 63.5143 34.2566 63.7751 34.2566H63.775Z" fill="#111111"/>
<path d="M65.456 39.8724L67.2594 38.0689L69.9912 37.1589L69.3694 35.2893L66.4174 36.2731C66.2725 36.322 66.1406 36.4035 66.0325 36.511L64.0643 38.4793L65.456 39.8724Z" fill="#111111"/>
<path d="M60.3855 35.0745L63.3375 33.1063V33.1068C63.6112 32.9239 63.7754 32.6169 63.7754 32.2881V27.3679H61.8072V31.7614L59.2931 33.434L60.3855 35.0745Z" fill="#111111"/>
<path d="M61.8087 23.4322H63.7764V21.8713L65.168 20.4802H72.2252L73.6163 21.8713V23.4322H75.5845V21.464C75.5845 21.2033 75.4806 20.9529 75.2962 20.7685L73.328 18.8003C73.1436 18.6159 72.8932 18.512 72.6324 18.512H64.7602C64.4995 18.512 64.2491 18.6159 64.0647 18.8003L62.0964 20.7685H62.097C61.912 20.9529 61.8087 21.2033 61.8087 21.464L61.8087 23.4322Z" fill="#111111"/>
<path d="M69.6797 29.3364H62.7918V31.3046H69.6797V29.3364Z" fill="#111111"/>
<path d="M33.2713 81.488H77.5518C77.8126 81.488 78.063 81.3841 78.2474 81.1997L80.2156 79.2315C80.4 79.0471 80.5039 78.7967 80.5039 78.536V71.6475C80.5039 71.1042 80.0634 70.6637 79.5196 70.6637H76.5676C76.3068 70.6637 76.0564 70.7676 75.872 70.952C75.6876 71.1364 75.5837 71.3868 75.5837 71.6475V74.1923L75.1765 74.5996H70.6634V76.5678H75.5837C75.8444 76.5678 76.0948 76.4639 76.2792 76.2795L77.263 75.2957H77.2635C77.448 75.1113 77.5518 74.8609 77.5518 74.5996V72.6319H78.5357V78.1287L77.1441 79.5198H33.2717C32.3996 79.5188 31.5518 79.2279 30.8625 78.6939C30.1727 78.1599 29.6792 77.4119 29.46 76.5679H56.8882V74.5996H28.3523C28.091 74.5996 27.8406 74.7035 27.6562 74.8879C27.4718 75.0729 27.3679 75.3227 27.3679 75.584C27.3695 77.1492 27.9923 78.6504 29.0993 79.7567C30.2058 80.8637 31.7069 81.4865 33.2721 81.4881L33.2713 81.488Z" fill="#111111"/>
<path d="M51.2726 32.984L52.6643 31.5924L49.7123 28.6404C49.5274 28.456 49.2775 28.3521 49.0162 28.3521H37.2081V24.4162H49.5928L58.1606 32.984L59.5522 31.5924L50.6961 22.7363C50.5117 22.5519 50.2614 22.448 50.0006 22.448H36.224C35.9632 22.448 35.7128 22.5519 35.5284 22.7363C35.3435 22.9207 35.2401 23.1711 35.2401 23.4324V29.3363C35.2401 29.5971 35.3435 29.8475 35.5284 30.0319C35.7128 30.2163 35.9632 30.3202 36.224 30.3202H48.6087L51.2726 32.984Z" fill="#111111"/>
<path d="M36.2236 22.4481H33.2716V24.4163H36.2236V22.4481Z" fill="#111111"/>
<path d="M36.2236 25.4003H33.2716V27.3685H36.2236V25.4003Z" fill="#111111"/>
<path d="M36.2236 28.3524H33.2716V30.3206H36.2236V28.3524Z" fill="#111111"/>
<path d="M41.1437 23.4321H39.1754V29.3361H41.1437V23.4321Z" fill="#111111"/>
<path d="M61.8085 64.7606H55.9045V66.7288H61.8085V64.7606Z" fill="#111111"/>
<path d="M55.9043 64.7606H50.9841V66.7288H55.9043V64.7606Z" fill="#111111"/>
<path d="M62.9895 44.6862L64.564 43.5055L61.8758 39.9219L62.7729 35.4365L60.8442 35.0505L59.8603 39.9707C59.8032 40.2466 59.8676 40.5333 60.0375 40.7582L62.9895 44.6862Z" fill="#111111"/>
<path d="M56.8882 41.1436H44.0963V43.1118H56.8882V41.1436Z" fill="#111111"/>
<path d="M40.1597 41.1436H28.3516V43.1118H40.1597V41.1436Z" fill="#111111"/>
<path d="M24.4162 46.0638H28.3526C28.8959 46.0638 29.3364 45.6233 29.3364 45.08V39.176C29.3364 38.6327 28.8959 38.1917 28.3526 38.1917H24.4162C24.1554 38.1917 23.905 38.2955 23.7206 38.4799C23.5357 38.6649 23.4323 38.9147 23.4323 39.176V45.08C23.4323 45.3408 23.5357 45.5911 23.7206 45.7755C23.905 45.9599 24.1554 46.0638 24.4162 46.0638V46.0638ZM27.3682 44.0956H25.3999L25.4005 40.1597H27.3681L27.3682 44.0956Z" fill="#111111"/>
<path d="M24.416 41.1436H22.4478V43.1118H24.416V41.1436Z" fill="#111111"/>
<path d="M46.064 66.7288H27.3685V68.697H46.064V66.7288Z" fill="#111111"/>
<path d="M25.4004 66.7288H23.4321V68.697H25.4004V66.7288Z" fill="#111111"/>
<path d="M37.2074 61.8085H24.4155V63.7768H37.2074V61.8085Z" fill="#111111"/>
<path d="M22.4481 61.8085H20.4799V63.7768H22.4481V61.8085Z" fill="#111111"/>
<path d="M36.2236 33.2726H24.4155V35.2408H36.2236V33.2726Z" fill="#111111"/>
<path d="M22.4481 33.2726H20.4799V35.2408H22.4481V33.2726Z" fill="#111111"/>
</svg>
