<svg width="51" height="51" viewBox="0 0 51 51" fill="none" xmlns="http://www.w3.org/2000/svg">
<path fill-rule="evenodd" clip-rule="evenodd" d="M25.5 49C38.4787 49 49 38.4787 49 25.5C49 12.5213 38.4787 2 25.5 2C12.5213 2 2 12.5213 2 25.5C2 38.4787 12.5213 49 25.5 49ZM25.5 51C39.5833 51 51 39.5833 51 25.5C51 11.4167 39.5833 0 25.5 0C11.4167 0 0 11.4167 0 25.5C0 39.5833 11.4167 51 25.5 51Z" fill="#FA4C25"/>
<path fill-rule="evenodd" clip-rule="evenodd" d="M40.4141 20.0172L24.6557 35.3973L12.5859 23.6172L13.9828 22.1859L24.6557 32.6026L39.0172 18.5859L40.4141 20.0172Z" fill="#FA4C25"/>
</svg>
