<svg width="51" height="52" viewBox="0 0 51 52" fill="none" xmlns="http://www.w3.org/2000/svg">
<path d="M0 0H12L32 35H20L0 0Z" fill="#C4C4C4"/>
<path d="M51 0H39L19 35H31L51 0Z" fill="#C4C4C4"/>
<rect x="9" y="20" width="32" height="32" rx="16" fill="#B98F78"/>
<path d="M25.0142 42.1591C24.2339 42.1591 23.5369 42.0246 22.9233 41.7557C22.3134 41.4867 21.8305 41.1136 21.4744 40.6364C21.1222 40.1553 20.9328 39.5985 20.9062 38.9659H22.6903C22.7131 39.3106 22.8286 39.6098 23.0369 39.8636C23.2491 40.1136 23.5256 40.3068 23.8665 40.4432C24.2074 40.5795 24.5862 40.6477 25.0028 40.6477C25.4612 40.6477 25.8665 40.5682 26.2188 40.4091C26.5748 40.25 26.8532 40.0284 27.054 39.7443C27.2547 39.4564 27.3551 39.125 27.3551 38.75C27.3551 38.3598 27.2547 38.017 27.054 37.7216C26.857 37.4223 26.5672 37.1875 26.1847 37.017C25.8059 36.8466 25.3475 36.7614 24.8097 36.7614H23.8267V35.3295H24.8097C25.2415 35.3295 25.6203 35.2519 25.946 35.0966C26.2756 34.9413 26.5331 34.7254 26.7188 34.4489C26.9044 34.1686 26.9972 33.8409 26.9972 33.4659C26.9972 33.1061 26.9157 32.7936 26.7528 32.5284C26.5938 32.2595 26.3665 32.0492 26.071 31.8977C25.7794 31.7462 25.4347 31.6705 25.0369 31.6705C24.6581 31.6705 24.304 31.7405 23.9744 31.8807C23.6487 32.017 23.3835 32.214 23.179 32.4716C22.9744 32.7254 22.8646 33.0303 22.8494 33.3864H21.1506C21.1695 32.7576 21.3551 32.2045 21.7074 31.7273C22.0634 31.25 22.5331 30.8769 23.1165 30.608C23.6998 30.339 24.3475 30.2045 25.0597 30.2045C25.8059 30.2045 26.4498 30.3504 26.9915 30.642C27.5369 30.9299 27.9574 31.3144 28.2528 31.7955C28.5521 32.2765 28.6998 32.803 28.696 33.375C28.6998 34.0265 28.518 34.5795 28.1506 35.0341C27.7869 35.4886 27.3021 35.7936 26.696 35.9489V36.0398C27.4688 36.1572 28.0672 36.464 28.4915 36.9602C28.9195 37.4564 29.1316 38.072 29.1278 38.8068C29.1316 39.447 28.9536 40.0208 28.5938 40.5284C28.2377 41.036 27.7509 41.4356 27.1335 41.7273C26.5161 42.0152 25.8097 42.1591 25.0142 42.1591Z" fill="white"/>
</svg>
