<svg width="24" height="24" viewBox="0 0 24 24" fill="none" xmlns="http://www.w3.org/2000/svg">
<path fill-rule="evenodd" clip-rule="evenodd" d="M4 13C4.55228 13 5 13.4477 5 14V16C5 17.6569 6.34315 19 8 19H16C17.6569 19 19 17.6569 19 16V14C19 13.4477 19.4477 13 20 13C20.5523 13 21 13.4477 21 14V16C21 18.7614 18.7614 21 16 21H8C5.23858 21 3 18.7614 3 16V14C3 13.4477 3.44772 13 4 13Z" fill="black"/>
<path fill-rule="evenodd" clip-rule="evenodd" d="M12 2L17.6805 7.05747C18.1065 7.43678 18.1065 8.05175 17.6805 8.43105C17.2545 8.81035 16.5637 8.81035 16.1377 8.43105L13.0909 5.71841V15.0287C13.0909 15.5652 12.6025 16 12 16C11.3975 16 10.9091 15.5652 10.9091 15.0287V5.71841L7.8623 8.43105C7.43627 8.81035 6.74555 8.81035 6.31952 8.43105C5.89349 8.05175 5.89349 7.43678 6.31952 7.05747L12 2Z" fill="black"/>
</svg>
