<svg width="24" height="24" viewBox="0 0 24 24" fill="none" xmlns="http://www.w3.org/2000/svg">
<path d="M22.0435 15.9186C21.5645 15.3437 21.0202 14.8283 20.4938 14.3299C20.3066 14.1527 20.1131 13.9695 19.9265 13.7872C19.3909 13.2636 19.3714 13.0668 19.7955 12.472C20.0888 12.0619 20.3999 11.6514 20.7008 11.2543C20.9736 10.8941 21.2558 10.5215 21.5263 10.1478L21.5818 10.0709C22.0987 9.3557 22.6333 8.61614 22.9178 7.72397C22.9917 7.48858 23.0692 7.14221 22.8919 6.85257C22.7146 6.56317 22.3708 6.47488 22.1275 6.43364C22.0072 6.41323 21.8877 6.41045 21.7768 6.41045L18.3917 6.40803L18.3637 6.40778C17.8519 6.40778 17.507 6.64898 17.3093 7.14523C17.1206 7.61939 16.9134 8.1243 16.6768 8.60439C16.2061 9.56038 15.6083 10.6615 14.7433 11.5798L14.7067 11.6189C14.6045 11.7286 14.4888 11.853 14.4042 11.853C14.3913 11.853 14.3772 11.8505 14.3612 11.8455C14.182 11.7756 14.0617 11.3419 14.0672 11.1401C14.0672 11.1373 14.0673 11.1345 14.0673 11.1317L14.0649 7.21923C14.0649 7.20567 14.064 7.19222 14.0622 7.17878C13.9761 6.54276 13.7853 6.14685 13.0646 6.00569C13.0455 6.00188 13.0259 6 13.0064 6H9.48654C8.91308 6 8.5971 6.23308 8.30007 6.58194C8.2199 6.6752 8.05301 6.86934 8.13573 7.10484C8.21966 7.34386 8.4921 7.39497 8.58081 7.41156C9.02117 7.49537 9.26939 7.76472 9.3397 8.23536C9.46244 9.05262 9.47752 9.92493 9.38717 10.9806C9.36198 11.274 9.31214 11.5006 9.23003 11.6942C9.21096 11.7394 9.14331 11.8868 9.07434 11.8869C9.05242 11.8869 8.98902 11.8783 8.87354 11.7987C8.60049 11.6117 8.40072 11.3447 8.16782 11.015C7.37551 9.89526 6.71054 8.66173 6.13466 7.24309C5.92108 6.72086 5.52219 6.42849 5.01098 6.41989C4.44927 6.41136 3.93999 6.40724 3.45427 6.40724C2.92356 6.40724 2.43154 6.41214 1.95109 6.42214C1.5398 6.4294 1.25531 6.55269 1.10561 6.78886C0.955675 7.02521 0.965425 7.33568 1.13462 7.71149C2.48901 10.7225 3.71702 12.9118 5.11647 14.8103C6.09705 16.1388 7.0806 17.0584 8.21142 17.7039C9.4028 18.3855 10.7379 18.7169 12.293 18.7169C12.4693 18.7169 12.6516 18.7126 12.8353 18.704C13.739 18.6599 14.0742 18.3329 14.1166 17.4531C14.1368 17.0034 14.1859 16.5319 14.407 16.1297C14.5465 15.8764 14.6765 15.8764 14.7193 15.8764C14.8017 15.8764 14.9038 15.9143 15.0134 15.9853C15.2101 16.1137 15.3788 16.2857 15.517 16.4359C15.6471 16.5786 15.7758 16.7228 15.9046 16.8671C16.1826 17.1784 16.47 17.5002 16.7702 17.8055C17.4274 18.4741 18.1513 18.7682 18.9828 18.7043H22.0864C22.093 18.7043 22.0997 18.7041 22.1063 18.7037C22.4155 18.6833 22.6834 18.5117 22.8411 18.233C23.0365 17.8878 23.0326 17.4474 22.8306 17.0546C22.6014 16.6105 22.304 16.231 22.0435 15.9186Z" fill="black"/>
</svg>
