<svg width="24" height="24" viewBox="0 0 24 24" fill="none" xmlns="http://www.w3.org/2000/svg">
<g clip-path="url(#clip0_136_6)">
<path d="M21.4426 7.55482C19.4009 1.18259 14.976 0.0896569 12.5201 0.00563819C9.92302 -0.0808871 7.69417 0.841589 6.89448 1.87016C6.89125 1.8707 6.88802 1.87043 6.88479 1.87097C6.8092 1.88426 5.01155 2.2206 3.36747 4.62623C2.2245 6.29841 1.5206 9.84781 2.38619 13.3954C2.91369 15.5575 4.21805 18.4835 7.43114 20.3028C7.41823 20.8946 7.33054 22.3192 6.80358 23.2183C6.6699 23.4464 6.74495 23.7402 6.9709 23.8747C7.04676 23.9197 7.13014 23.9414 7.21245 23.9414C7.37492 23.9414 7.53336 23.8571 7.62212 23.706C8.10469 22.8823 8.26609 22.203 8.33092 21.4113C9.10506 22.0349 10.0691 22.4705 11.2691 22.566C11.4356 22.579 11.597 22.5855 11.7554 22.5852C13.1475 22.585 14.2417 22.0902 15.0974 21.3693C15.1289 22.1692 15.3169 22.9053 15.9767 23.8055C16.0701 23.9327 16.2137 24 16.3592 24C16.4574 24 16.5564 23.9694 16.6412 23.9059C16.8526 23.7488 16.897 23.4488 16.7412 23.2357C16.0755 22.3276 16.0429 20.9762 16.0626 20.4034C18.0614 19.173 23.7957 14.9002 21.4426 7.55478L21.4426 7.55482ZM11.3605 21.1756C6.683 20.8045 6.18699 14.0437 6.18189 13.9645C5.80612 9.6866 7.41011 7.89263 7.44103 7.85895C7.50182 7.79711 8.74782 6.58388 11.1889 8.11012C12.3574 8.8406 14.8596 10.2472 17.1965 10.5339C17.3429 11.1935 17.6137 12.94 17.0559 15.2347C17.0526 15.2483 17.0497 15.2613 17.0478 15.2751C17.0378 15.3378 16.0197 21.5445 11.3605 21.1756L11.3605 21.1756Z" fill="#787675"/>
</g>
<defs>
<clipPath id="clip0_136_6">
<rect width="24" height="24" fill="white"/>
</clipPath>
</defs>
</svg>
