<svg width="24" height="24" viewBox="0 0 24 24" fill="none" xmlns="http://www.w3.org/2000/svg">
<path fill-rule="evenodd" clip-rule="evenodd" d="M14 4H10V6H14V4ZM18 6C19.1046 6 20 6.89543 20 8V18C20 19.1046 19.1046 20 18 20H6C4.89543 20 4 19.1046 4 18V8C4 6.89543 4.89543 6 6 6V4C3.79086 4 2 5.79086 2 8V18C2 20.2091 3.79086 22 6 22H18C20.2091 22 22 20.2091 22 18V8C22 5.79086 20.2091 4 18 4V6Z" fill="#111111"/>
<path fill-rule="evenodd" clip-rule="evenodd" d="M8 3C8.55228 3 9 3.44772 9 4L9 6C9 6.55228 8.55228 7 8 7C7.44772 7 7 6.55228 7 6L7 4C7 3.44772 7.44772 3 8 3Z" fill="#111111"/>
<path fill-rule="evenodd" clip-rule="evenodd" d="M16 3C16.5523 3 17 3.44772 17 4L17 6C17 6.55228 16.5523 7 16 7C15.4477 7 15 6.55228 15 6L15 4C15 3.44772 15.4477 3 16 3Z" fill="#111111"/>
<path fill-rule="evenodd" clip-rule="evenodd" d="M6 11C6 10.4477 6.44772 10 7 10H8C8.55228 10 9 10.4477 9 11C9 11.5523 8.55228 12 8 12H7C6.44772 12 6 11.5523 6 11Z" fill="#111111"/>
<path fill-rule="evenodd" clip-rule="evenodd" d="M6 15C6 14.4477 6.44772 14 7 14H8C8.55228 14 9 14.4477 9 15C9 15.5523 8.55228 16 8 16H7C6.44772 16 6 15.5523 6 15Z" fill="#111111"/>
<path fill-rule="evenodd" clip-rule="evenodd" d="M11 11C11 10.4477 11.4477 10 12 10H13C13.5523 10 14 10.4477 14 11C14 11.5523 13.5523 12 13 12H12C11.4477 12 11 11.5523 11 11Z" fill="#111111"/>
</svg>
