<svg width="32" height="32" viewBox="0 0 32 32" fill="none" xmlns="http://www.w3.org/2000/svg">
<g id="Google + (Google Plus)">
<g id="Google + (Google Plus)_2">
<rect id="Rectangle" width="32" height="32" rx="16" fill="currentColor"/>
<g id="Group">
<path id="Vector" d="M23.6344 12.9146C24.3153 12.9146 24.9959 12.9146 25.6799 12.9146C25.6836 13.5989 25.6902 14.2866 25.6939 14.9706C26.3779 14.9775 27.0657 14.9809 27.75 14.9843C27.75 15.6686 27.75 16.3492 27.75 17.0335C27.066 17.037 26.3782 17.0404 25.6939 17.0438C25.6871 17.7316 25.6836 18.4156 25.6799 19.1033C24.9959 19.0999 24.3113 19.1033 23.6307 19.1033C23.6241 18.4156 23.6241 17.7316 23.617 17.0472C22.933 17.0401 22.2452 17.037 21.5609 17.0332C21.5609 16.3489 21.5609 15.6683 21.5609 14.984C22.2452 14.9806 22.9296 14.9772 23.617 14.9703C23.6204 14.2866 23.6273 13.5989 23.6344 12.9146Z" fill="white"/>
<path id="Vector_2" d="M5.08776 16.0093C4.94672 12.296 8.19926 8.8644 11.9163 8.81988C13.8108 8.6583 15.6539 9.39399 17.0876 10.5939C16.4995 11.2405 15.9011 11.8797 15.262 12.4781C13.9998 11.7113 12.4802 11.1269 11.005 11.6459C8.6258 12.3234 7.18493 15.1326 8.06539 17.4601C8.79454 19.891 11.7513 21.2251 14.0686 20.2039C15.2685 19.7743 16.0596 18.6672 16.4067 17.4775C15.0316 17.4502 13.6561 17.4673 12.2809 17.4293C12.2775 16.6111 12.274 15.796 12.2775 14.9778C14.5708 14.9744 16.8675 14.9675 19.1643 14.9881C19.3053 16.9928 19.0095 19.1382 17.7063 20.7472C15.9217 23.0439 12.6246 23.718 9.94244 22.817C7.09588 21.882 5.0258 19.0143 5.08776 16.0093Z" fill="white"/>
</g>
</g>
</g>
</svg>
