<svg width="32" height="32" viewBox="0 0 32 32" fill="none" xmlns="http://www.w3.org/2000/svg">
<g id="LinkedIn">
<g id="LinkedIn_2">
<rect id="Rectangle" width="32" height="32" rx="16" fill="currentColor"/>
<g id="Group">
<path id="Path" d="M24.8833 23.55C23.8333 23.525 22.8083 23.525 21.7583 23.55C21.5333 23.55 21.4833 23.5 21.4833 23.275C21.4833 21.425 21.4833 19.55 21.4833 17.7C21.4833 17.275 21.4583 16.85 21.3333 16.45C20.9583 15.15 19.4583 14.675 18.3833 15.55C17.8083 16 17.5833 16.625 17.5833 17.375C17.5833 19.125 17.5833 20.875 17.5833 22.625C17.5833 22.85 17.5583 23.075 17.5833 23.325C17.6083 23.525 17.5083 23.575 17.3333 23.55C16.2583 23.55 15.2083 23.55 14.1333 23.55C13.9333 23.55 13.8833 23.5 13.8833 23.3C13.9083 21.725 13.9083 20.15 13.9083 18.55C13.9083 16.6 13.9083 14.65 13.8833 12.725C13.8833 12.5 13.9333 12.45 14.1333 12.45C15.2083 12.45 16.2583 12.45 17.3333 12.45C17.5333 12.45 17.5833 12.5 17.5833 12.7C17.5833 13.1 17.5833 13.5 17.5833 13.975C17.6583 13.9 17.6833 13.875 17.7083 13.85C18.6833 12.425 20.0583 12.025 21.6833 12.275C23.5583 12.575 24.7583 13.875 25.0583 15.875C25.1333 16.35 25.1583 16.825 25.1583 17.3C25.1583 19.3 25.1583 21.275 25.1583 23.275C25.1583 23.475 25.1083 23.55 24.8833 23.55Z" fill="white"/>
<path id="Path_2" d="M11.8833 18.0001C11.8833 19.7501 11.8833 21.5001 11.8833 23.2501C11.8833 23.4751 11.8333 23.5501 11.6083 23.5501C10.5583 23.5251 9.50834 23.5501 8.45834 23.5501C8.25834 23.5501 8.20834 23.5001 8.20834 23.3001C8.20834 19.7751 8.20834 16.2251 8.20834 12.7001C8.20834 12.5251 8.25834 12.4501 8.45834 12.4501C9.53334 12.4501 10.6083 12.4501 11.6833 12.4501C11.9083 12.4501 11.9333 12.5251 11.9333 12.7251C11.8833 14.4751 11.8833 16.2251 11.8833 18.0001Z" fill="white"/>
<path id="Path_3" d="M12.0583 9.55001C11.8083 10.55 10.7833 11.125 9.60834 10.925C8.35834 10.725 7.65834 9.50001 8.10834 8.30001C8.40834 7.55001 9.13334 7.10001 10.0583 7.12501C11.4583 7.10001 12.3833 8.22501 12.0583 9.55001Z" fill="white"/>
</g>
</g>
</g>
</svg>
